<svg width="1592" height="763" viewBox="0 0 1592 763" fill="none" xmlns="http://www.w3.org/2000/svg">
                <rect x="16" y="16" width="1560" height="731" stroke="#121212" stroke-width="32"/>
                <path d="M82.3108 15.2667V18.2187H86.2948V20.3067H82.3108V24.8427H79.5908V13.1867H87.0948V15.2667H82.3108ZM102.544 19.0107C102.544 19.8534 102.397 20.6374 102.104 21.3627C101.816 22.088 101.408 22.72 100.88 23.2587C100.352 23.792 99.7146 24.2107 98.9679 24.5147C98.2266 24.8187 97.4026 24.9707 96.4959 24.9707C95.5892 24.9707 94.7626 24.8187 94.0159 24.5147C93.2692 24.2107 92.6292 23.792 92.0959 23.2587C91.5679 22.72 91.1572 22.088 90.8639 21.3627C90.5759 20.6374 90.4319 19.8534 90.4319 19.0107C90.4319 18.168 90.5759 17.384 90.8639 16.6587C91.1572 15.9334 91.5679 15.304 92.0959 14.7707C92.6292 14.2374 93.2692 13.8187 94.0159 13.5147C94.7626 13.2107 95.5892 13.0587 96.4959 13.0587C97.4026 13.0587 98.2266 13.2134 98.9679 13.5227C99.7146 13.8267 100.352 14.2454 100.88 14.7787C101.408 15.312 101.816 15.9414 102.104 16.6667C102.397 17.392 102.544 18.1734 102.544 19.0107ZM99.7759 19.0107C99.7759 18.4347 99.7012 17.9174 99.5519 17.4587C99.4026 16.9947 99.1866 16.6027 98.9039 16.2827C98.6266 15.9627 98.2852 15.7174 97.8799 15.5467C97.4746 15.376 97.0132 15.2907 96.4959 15.2907C95.9732 15.2907 95.5066 15.376 95.0959 15.5467C94.6906 15.7174 94.3466 15.9627 94.0639 16.2827C93.7866 16.6027 93.5732 16.9947 93.4239 17.4587C93.2746 17.9174 93.1999 18.4347 93.1999 19.0107C93.1999 19.592 93.2746 20.1147 93.4239 20.5787C93.5732 21.0374 93.7866 21.4267 94.0639 21.7467C94.3466 22.0667 94.6906 22.312 95.0959 22.4827C95.5066 22.648 95.9732 22.7307 96.4959 22.7307C97.0132 22.7307 97.4746 22.648 97.8799 22.4827C98.2852 22.312 98.6266 22.0667 98.9039 21.7467C99.1866 21.4267 99.4026 21.0374 99.5519 20.5787C99.7012 20.1147 99.7759 19.592 99.7759 19.0107ZM110.487 18.6667C110.855 18.6667 111.167 18.6214 111.423 18.5307C111.684 18.4347 111.898 18.304 112.063 18.1387C112.228 17.9734 112.348 17.7814 112.423 17.5627C112.498 17.3387 112.535 17.0987 112.535 16.8427C112.535 16.3307 112.367 15.9307 112.031 15.6427C111.7 15.3547 111.186 15.2107 110.487 15.2107H109.399V18.6667H110.487ZM116.231 24.8427H113.783C113.33 24.8427 113.004 24.672 112.807 24.3307L110.871 20.9467C110.78 20.8027 110.679 20.6987 110.567 20.6347C110.455 20.5654 110.295 20.5307 110.087 20.5307H109.399V24.8427H106.695V13.1867H110.487C111.33 13.1867 112.047 13.2747 112.639 13.4507C113.236 13.6214 113.722 13.8614 114.095 14.1707C114.474 14.48 114.748 14.8454 114.919 15.2667C115.09 15.688 115.175 16.1467 115.175 16.6427C115.175 17.0214 115.124 17.3787 115.023 17.7147C114.922 18.0507 114.772 18.3627 114.575 18.6507C114.378 18.9334 114.132 19.1867 113.839 19.4107C113.551 19.6347 113.218 19.8187 112.839 19.9627C113.015 20.0534 113.18 20.168 113.335 20.3067C113.49 20.44 113.628 20.6 113.751 20.7867L116.231 24.8427ZM127.912 15.3307H124.632V24.8427H121.928V15.3307H118.648V13.1867H127.912V15.3307ZM134.566 15.2667V17.9867H138.23V19.9867H134.566V22.7627H139.35V24.8427H131.846V13.1867H139.35V15.2667H134.566ZM139.406 9.90671L136.822 12.1867C136.758 12.2454 136.697 12.2907 136.638 12.3227C136.58 12.3547 136.518 12.3787 136.454 12.3947C136.39 12.4107 136.321 12.4214 136.246 12.4267C136.177 12.432 136.097 12.4347 136.006 12.4347H134.198L135.71 10.2747C135.774 10.1894 135.836 10.1227 135.894 10.0747C135.958 10.0214 136.025 9.98405 136.094 9.96271C136.169 9.93604 136.252 9.92004 136.342 9.91471C136.438 9.90938 136.548 9.90671 136.67 9.90671H139.406Z" fill="#FFF6F6"/>
                <path d="M13.247 701.043H16.199V697.059H18.287V701.043H22.823V703.763H11.167V696.259H13.247V701.043ZM16.991 680.81C17.8337 680.81 18.6177 680.956 19.343 681.25C20.0683 681.538 20.7003 681.946 21.239 682.474C21.7723 683.002 22.191 683.639 22.495 684.386C22.799 685.127 22.951 685.951 22.951 686.858C22.951 687.764 22.799 688.591 22.495 689.338C22.191 690.084 21.7723 690.724 21.239 691.258C20.7003 691.786 20.0683 692.196 19.343 692.49C18.6177 692.778 17.8337 692.922 16.991 692.922C16.1483 692.922 15.3643 692.778 14.639 692.49C13.9137 692.196 13.2843 691.786 12.751 691.258C12.2177 690.724 11.799 690.084 11.495 689.338C11.191 688.591 11.039 687.764 11.039 686.858C11.039 685.951 11.1937 685.127 11.503 684.386C11.807 683.639 12.2257 683.002 12.759 682.474C13.2923 681.946 13.9217 681.538 14.647 681.25C15.3723 680.956 16.1537 680.81 16.991 680.81ZM16.991 683.578C16.415 683.578 15.8977 683.652 15.439 683.802C14.975 683.951 14.583 684.167 14.263 684.45C13.943 684.727 13.6977 685.068 13.527 685.474C13.3563 685.879 13.271 686.34 13.271 686.858C13.271 687.38 13.3563 687.847 13.527 688.258C13.6977 688.663 13.943 689.007 14.263 689.29C14.583 689.567 14.975 689.78 15.439 689.93C15.8977 690.079 16.415 690.154 16.991 690.154C17.5723 690.154 18.095 690.079 18.559 689.93C19.0177 689.78 19.407 689.567 19.727 689.29C20.047 689.007 20.2923 688.663 20.463 688.258C20.6283 687.847 20.711 687.38 20.711 686.858C20.711 686.34 20.6283 685.879 20.463 685.474C20.2923 685.068 20.047 684.727 19.727 684.45C19.407 684.167 19.0177 683.951 18.559 683.802C18.095 683.652 17.5723 683.578 16.991 683.578ZM16.647 672.866C16.647 672.498 16.6017 672.186 16.511 671.93C16.415 671.669 16.2843 671.456 16.119 671.29C15.9537 671.125 15.7617 671.005 15.543 670.93C15.319 670.856 15.079 670.818 14.823 670.818C14.311 670.818 13.911 670.986 13.623 671.322C13.335 671.653 13.191 672.168 13.191 672.866V673.954H16.647V672.866ZM22.823 667.122V669.57C22.823 670.024 22.6523 670.349 22.311 670.546L18.927 672.482C18.783 672.573 18.679 672.674 18.615 672.786C18.5457 672.898 18.511 673.058 18.511 673.266V673.954H22.823V676.658H11.167V672.866C11.167 672.024 11.255 671.306 11.431 670.714C11.6017 670.117 11.8417 669.632 12.151 669.258C12.4603 668.88 12.8257 668.605 13.247 668.434C13.6683 668.264 14.127 668.178 14.623 668.178C15.0017 668.178 15.359 668.229 15.695 668.33C16.031 668.432 16.343 668.581 16.631 668.778C16.9137 668.976 17.167 669.221 17.391 669.514C17.615 669.802 17.799 670.136 17.943 670.514C18.0337 670.338 18.1483 670.173 18.287 670.018C18.4203 669.864 18.5803 669.725 18.767 669.602L22.823 667.122ZM13.311 655.441V658.721H22.823V661.425H13.311L13.311 664.705H11.167L11.167 655.441H13.311ZM13.247 648.787H15.967V645.123H17.967V648.787H20.743V644.003H22.823V651.507H11.167V644.003H13.247V648.787ZM7.887 643.947L10.167 646.531C10.2257 646.595 10.271 646.656 10.303 646.715C10.335 646.774 10.359 646.835 10.375 646.899C10.391 646.963 10.4017 647.032 10.407 647.107C10.4123 647.176 10.415 647.256 10.415 647.347V649.155L8.255 647.643C8.16966 647.579 8.103 647.518 8.055 647.459C8.00166 647.395 7.96433 647.328 7.943 647.259C7.91633 647.184 7.90033 647.102 7.895 647.011C7.88966 646.915 7.887 646.806 7.887 646.683V643.947Z" fill="#FFF6F6"/>
                <path d="M13.247 511.556H16.199V507.572H18.287V511.556H22.823V514.276H11.167V506.772H13.247V511.556ZM16.991 491.323C17.8337 491.323 18.6177 491.47 19.343 491.763C20.0683 492.051 20.7003 492.459 21.239 492.987C21.7723 493.515 22.191 494.152 22.495 494.899C22.799 495.64 22.951 496.464 22.951 497.371C22.951 498.278 22.799 499.104 22.495 499.851C22.191 500.598 21.7723 501.238 21.239 501.771C20.7003 502.299 20.0683 502.71 19.343 503.003C18.6177 503.291 17.8337 503.435 16.991 503.435C16.1483 503.435 15.3643 503.291 14.639 503.003C13.9137 502.71 13.2843 502.299 12.751 501.771C12.2177 501.238 11.799 500.598 11.495 499.851C11.191 499.104 11.039 498.278 11.039 497.371C11.039 496.464 11.1937 495.64 11.503 494.899C11.807 494.152 12.2257 493.515 12.759 492.987C13.2923 492.459 13.9217 492.051 14.647 491.763C15.3723 491.47 16.1537 491.323 16.991 491.323ZM16.991 494.091C16.415 494.091 15.8977 494.166 15.439 494.315C14.975 494.464 14.583 494.68 14.263 494.963C13.943 495.24 13.6977 495.582 13.527 495.987C13.3563 496.392 13.271 496.854 13.271 497.371C13.271 497.894 13.3563 498.36 13.527 498.771C13.6977 499.176 13.943 499.52 14.263 499.803C14.583 500.08 14.975 500.294 15.439 500.443C15.8977 500.592 16.415 500.667 16.991 500.667C17.5723 500.667 18.095 500.592 18.559 500.443C19.0177 500.294 19.407 500.08 19.727 499.803C20.047 499.52 20.2923 499.176 20.463 498.771C20.6283 498.36 20.711 497.894 20.711 497.371C20.711 496.854 20.6283 496.392 20.463 495.987C20.2923 495.582 20.047 495.24 19.727 494.963C19.407 494.68 19.0177 494.464 18.559 494.315C18.095 494.166 17.5723 494.091 16.991 494.091ZM16.647 483.38C16.647 483.012 16.6017 482.7 16.511 482.444C16.415 482.182 16.2843 481.969 16.119 481.804C15.9537 481.638 15.7617 481.518 15.543 481.444C15.319 481.369 15.079 481.332 14.823 481.332C14.311 481.332 13.911 481.5 13.623 481.836C13.335 482.166 13.191 482.681 13.191 483.38V484.468H16.647V483.38ZM22.823 477.636V480.084C22.823 480.537 22.6523 480.862 22.311 481.06L18.927 482.996C18.783 483.086 18.679 483.188 18.615 483.3C18.5457 483.412 18.511 483.572 18.511 483.78V484.468H22.823V487.172H11.167V483.38C11.167 482.537 11.255 481.82 11.431 481.228C11.6017 480.63 11.8417 480.145 12.151 479.772C12.4603 479.393 12.8257 479.118 13.247 478.948C13.6683 478.777 14.127 478.692 14.623 478.692C15.0017 478.692 15.359 478.742 15.695 478.844C16.031 478.945 16.343 479.094 16.631 479.292C16.9137 479.489 17.167 479.734 17.391 480.028C17.615 480.316 17.799 480.649 17.943 481.028C18.0337 480.852 18.1483 480.686 18.287 480.532C18.4203 480.377 18.5803 480.238 18.767 480.116L22.823 477.636ZM13.311 465.954V469.234H22.823V471.938H13.311L13.311 475.218H11.167L11.167 465.954H13.311ZM13.247 459.3H15.967V455.636H17.967V459.3H20.743V454.516H22.823V462.02H11.167V454.516H13.247V459.3ZM7.887 454.46L10.167 457.044C10.2257 457.108 10.271 457.17 10.303 457.228C10.335 457.287 10.359 457.348 10.375 457.412C10.391 457.476 10.4017 457.546 10.407 457.62C10.4123 457.69 10.415 457.77 10.415 457.86V459.668L8.255 458.156C8.16966 458.092 8.103 458.031 8.055 457.972C8.00166 457.908 7.96433 457.842 7.943 457.772C7.91633 457.698 7.90033 457.615 7.895 457.524C7.88966 457.428 7.887 457.319 7.887 457.196V454.46Z" fill="#FFF6F6"/>
                <path d="M13.247 320.806H16.199V316.822H18.287V320.806H22.823V323.526H11.167V316.022H13.247V320.806ZM16.991 300.573C17.8337 300.573 18.6177 300.719 19.343 301.013C20.0683 301.301 20.7003 301.709 21.239 302.237C21.7723 302.765 22.191 303.402 22.495 304.149C22.799 304.89 22.951 305.714 22.951 306.621C22.951 307.527 22.799 308.354 22.495 309.101C22.191 309.847 21.7723 310.487 21.239 311.021C20.7003 311.549 20.0683 311.959 19.343 312.253C18.6177 312.541 17.8337 312.685 16.991 312.685C16.1483 312.685 15.3643 312.541 14.639 312.253C13.9137 311.959 13.2843 311.549 12.751 311.021C12.2177 310.487 11.799 309.847 11.495 309.101C11.191 308.354 11.039 307.527 11.039 306.621C11.039 305.714 11.1937 304.89 11.503 304.149C11.807 303.402 12.2257 302.765 12.759 302.237C13.2923 301.709 13.9217 301.301 14.647 301.013C15.3723 300.719 16.1537 300.573 16.991 300.573ZM16.991 303.341C16.415 303.341 15.8977 303.415 15.439 303.565C14.975 303.714 14.583 303.93 14.263 304.213C13.943 304.49 13.6977 304.831 13.527 305.237C13.3563 305.642 13.271 306.103 13.271 306.621C13.271 307.143 13.3563 307.61 13.527 308.021C13.6977 308.426 13.943 308.77 14.263 309.053C14.583 309.33 14.975 309.543 15.439 309.693C15.8977 309.842 16.415 309.917 16.991 309.917C17.5723 309.917 18.095 309.842 18.559 309.693C19.0177 309.543 19.407 309.33 19.727 309.053C20.047 308.77 20.2923 308.426 20.463 308.021C20.6283 307.61 20.711 307.143 20.711 306.621C20.711 306.103 20.6283 305.642 20.463 305.237C20.2923 304.831 20.047 304.49 19.727 304.213C19.407 303.93 19.0177 303.714 18.559 303.565C18.095 303.415 17.5723 303.341 16.991 303.341ZM16.647 292.63C16.647 292.262 16.6017 291.95 16.511 291.694C16.415 291.432 16.2843 291.219 16.119 291.054C15.9537 290.888 15.7617 290.768 15.543 290.694C15.319 290.619 15.079 290.582 14.823 290.582C14.311 290.582 13.911 290.75 13.623 291.086C13.335 291.416 13.191 291.931 13.191 292.63V293.718H16.647V292.63ZM22.823 286.886V289.334C22.823 289.787 22.6523 290.112 22.311 290.31L18.927 292.246C18.783 292.336 18.679 292.438 18.615 292.55C18.5457 292.662 18.511 292.822 18.511 293.03V293.718H22.823V296.422H11.167V292.63C11.167 291.787 11.255 291.07 11.431 290.478C11.6017 289.88 11.8417 289.395 12.151 289.022C12.4603 288.643 12.8257 288.368 13.247 288.198C13.6683 288.027 14.127 287.942 14.623 287.942C15.0017 287.942 15.359 287.992 15.695 288.094C16.031 288.195 16.343 288.344 16.631 288.542C16.9137 288.739 17.167 288.984 17.391 289.278C17.615 289.566 17.799 289.899 17.943 290.278C18.0337 290.102 18.1483 289.936 18.287 289.782C18.4203 289.627 18.5803 289.488 18.767 289.366L22.823 286.886ZM13.311 275.204V278.484H22.823V281.188H13.311L13.311 284.468H11.167L11.167 275.204H13.311ZM13.247 268.55H15.967V264.886H17.967V268.55H20.743V263.766H22.823V271.27H11.167V263.766H13.247V268.55ZM7.887 263.71L10.167 266.294C10.2257 266.358 10.271 266.42 10.303 266.478C10.335 266.537 10.359 266.598 10.375 266.662C10.391 266.726 10.4017 266.796 10.407 266.87C10.4123 266.94 10.415 267.02 10.415 267.11V268.918L8.255 267.406C8.16966 267.342 8.103 267.281 8.055 267.222C8.00166 267.158 7.96433 267.092 7.943 267.022C7.91633 266.948 7.90033 266.865 7.895 266.774C7.88966 266.678 7.887 266.569 7.887 266.446V263.71Z" fill="#FFF6F6"/>
                <path d="M13.247 131.319H16.199V127.335H18.287V131.319H22.823V134.039H11.167V126.535H13.247V131.319ZM16.991 111.086C17.8337 111.086 18.6177 111.233 19.343 111.526C20.0683 111.814 20.7003 112.222 21.239 112.75C21.7723 113.278 22.191 113.915 22.495 114.662C22.799 115.403 22.951 116.227 22.951 117.134C22.951 118.041 22.799 118.867 22.495 119.614C22.191 120.361 21.7723 121.001 21.239 121.534C20.7003 122.062 20.0683 122.473 19.343 122.766C18.6177 123.054 17.8337 123.198 16.991 123.198C16.1483 123.198 15.3643 123.054 14.639 122.766C13.9137 122.473 13.2843 122.062 12.751 121.534C12.2177 121.001 11.799 120.361 11.495 119.614C11.191 118.867 11.039 118.041 11.039 117.134C11.039 116.227 11.1937 115.403 11.503 114.662C11.807 113.915 12.2257 113.278 12.759 112.75C13.2923 112.222 13.9217 111.814 14.647 111.526C15.3723 111.233 16.1537 111.086 16.991 111.086ZM16.991 113.854C16.415 113.854 15.8977 113.929 15.439 114.078C14.975 114.227 14.583 114.443 14.263 114.726C13.943 115.003 13.6977 115.345 13.527 115.75C13.3563 116.155 13.271 116.617 13.271 117.134C13.271 117.657 13.3563 118.123 13.527 118.534C13.6977 118.939 13.943 119.283 14.263 119.566C14.583 119.843 14.975 120.057 15.439 120.206C15.8977 120.355 16.415 120.43 16.991 120.43C17.5723 120.43 18.095 120.355 18.559 120.206C19.0177 120.057 19.407 119.843 19.727 119.566C20.047 119.283 20.2923 118.939 20.463 118.534C20.6283 118.123 20.711 117.657 20.711 117.134C20.711 116.617 20.6283 116.155 20.463 115.75C20.2923 115.345 20.047 115.003 19.727 114.726C19.407 114.443 19.0177 114.227 18.559 114.078C18.095 113.929 17.5723 113.854 16.991 113.854ZM16.647 103.143C16.647 102.775 16.6017 102.463 16.511 102.207C16.415 101.946 16.2843 101.732 16.119 101.567C15.9537 101.402 15.7617 101.282 15.543 101.207C15.319 101.132 15.079 101.095 14.823 101.095C14.311 101.095 13.911 101.263 13.623 101.599C13.335 101.93 13.191 102.444 13.191 103.143V104.231H16.647V103.143ZM22.823 97.3989V99.8469C22.823 100.3 22.6523 100.626 22.311 100.823L18.927 102.759C18.783 102.85 18.679 102.951 18.615 103.063C18.5457 103.175 18.511 103.335 18.511 103.543V104.231H22.823V106.935H11.167V103.143C11.167 102.3 11.255 101.583 11.431 100.991C11.6017 100.394 11.8417 99.9082 12.151 99.5349C12.4603 99.1562 12.8257 98.8815 13.247 98.7109C13.6683 98.5402 14.127 98.4549 14.623 98.4549C15.0017 98.4549 15.359 98.5055 15.695 98.6069C16.031 98.7082 16.343 98.8575 16.631 99.0549C16.9137 99.2522 17.167 99.4975 17.391 99.7909C17.615 100.079 17.799 100.412 17.943 100.791C18.0337 100.615 18.1483 100.45 18.287 100.295C18.4203 100.14 18.5803 100.002 18.767 99.8789L22.823 97.3989ZM13.311 85.7176V88.9976H22.823V91.7016H13.311L13.311 94.9816H11.167L11.167 85.7176H13.311ZM13.247 79.0636H15.967V75.3996H17.967V79.0636H20.743V74.2796H22.823V81.7836H11.167V74.2796H13.247V79.0636ZM7.887 74.2236L10.167 76.8076C10.2257 76.8716 10.271 76.9329 10.303 76.9916C10.335 77.0503 10.359 77.1116 10.375 77.1756C10.391 77.2396 10.4017 77.3089 10.407 77.3836C10.4123 77.4529 10.415 77.5329 10.415 77.6236V79.4316L8.255 77.9196C8.16966 77.8556 8.103 77.7943 8.055 77.7356C8.00166 77.6716 7.96433 77.6049 7.943 77.5356C7.91633 77.4609 7.90033 77.3783 7.895 77.2876C7.88966 77.1916 7.887 77.0823 7.887 76.9596V74.2236Z" fill="#FFF6F6"/>
                <path d="M252.882 15.2667V18.2187H256.866V20.3067H252.882V24.8427H250.162V13.1867H257.666V15.2667H252.882ZM273.115 19.0107C273.115 19.8534 272.969 20.6374 272.675 21.3627C272.387 22.088 271.979 22.72 271.451 23.2587C270.923 23.792 270.286 24.2107 269.539 24.5147C268.798 24.8187 267.974 24.9707 267.067 24.9707C266.161 24.9707 265.334 24.8187 264.587 24.5147C263.841 24.2107 263.201 23.792 262.667 23.2587C262.139 22.72 261.729 22.088 261.435 21.3627C261.147 20.6374 261.003 19.8534 261.003 19.0107C261.003 18.168 261.147 17.384 261.435 16.6587C261.729 15.9334 262.139 15.304 262.667 14.7707C263.201 14.2374 263.841 13.8187 264.587 13.5147C265.334 13.2107 266.161 13.0587 267.067 13.0587C267.974 13.0587 268.798 13.2134 269.539 13.5227C270.286 13.8267 270.923 14.2454 271.451 14.7787C271.979 15.312 272.387 15.9414 272.675 16.6667C272.969 17.392 273.115 18.1734 273.115 19.0107ZM270.347 19.0107C270.347 18.4347 270.273 17.9174 270.123 17.4587C269.974 16.9947 269.758 16.6027 269.475 16.2827C269.198 15.9627 268.857 15.7174 268.451 15.5467C268.046 15.376 267.585 15.2907 267.067 15.2907C266.545 15.2907 266.078 15.376 265.667 15.5467C265.262 15.7174 264.918 15.9627 264.635 16.2827C264.358 16.6027 264.145 16.9947 263.995 17.4587C263.846 17.9174 263.771 18.4347 263.771 19.0107C263.771 19.592 263.846 20.1147 263.995 20.5787C264.145 21.0374 264.358 21.4267 264.635 21.7467C264.918 22.0667 265.262 22.312 265.667 22.4827C266.078 22.648 266.545 22.7307 267.067 22.7307C267.585 22.7307 268.046 22.648 268.451 22.4827C268.857 22.312 269.198 22.0667 269.475 21.7467C269.758 21.4267 269.974 21.0374 270.123 20.5787C270.273 20.1147 270.347 19.592 270.347 19.0107ZM281.059 18.6667C281.427 18.6667 281.739 18.6214 281.995 18.5307C282.256 18.4347 282.469 18.304 282.635 18.1387C282.8 17.9734 282.92 17.7814 282.995 17.5627C283.069 17.3387 283.107 17.0987 283.107 16.8427C283.107 16.3307 282.939 15.9307 282.603 15.6427C282.272 15.3547 281.757 15.2107 281.059 15.2107H279.971V18.6667H281.059ZM286.803 24.8427H284.355C283.901 24.8427 283.576 24.672 283.379 24.3307L281.443 20.9467C281.352 20.8027 281.251 20.6987 281.139 20.6347C281.027 20.5654 280.867 20.5307 280.659 20.5307H279.971V24.8427H277.267V13.1867H281.059C281.901 13.1867 282.619 13.2747 283.211 13.4507C283.808 13.6214 284.293 13.8614 284.667 14.1707C285.045 14.48 285.32 14.8454 285.491 15.2667C285.661 15.688 285.747 16.1467 285.747 16.6427C285.747 17.0214 285.696 17.3787 285.595 17.7147C285.493 18.0507 285.344 18.3627 285.147 18.6507C284.949 18.9334 284.704 19.1867 284.411 19.4107C284.123 19.6347 283.789 19.8187 283.411 19.9627C283.587 20.0534 283.752 20.168 283.907 20.3067C284.061 20.44 284.2 20.6 284.323 20.7867L286.803 24.8427ZM298.484 15.3307H295.204V24.8427H292.5V15.3307H289.22V13.1867H298.484V15.3307ZM305.138 15.2667V17.9867H308.802V19.9867H305.138V22.7627H309.922V24.8427H302.418V13.1867H309.922V15.2667H305.138ZM309.978 9.90671L307.394 12.1867C307.33 12.2454 307.268 12.2907 307.21 12.3227C307.151 12.3547 307.09 12.3787 307.026 12.3947C306.962 12.4107 306.892 12.4214 306.818 12.4267C306.748 12.432 306.668 12.4347 306.578 12.4347H304.77L306.282 10.2747C306.346 10.1894 306.407 10.1227 306.466 10.0747C306.53 10.0214 306.596 9.98405 306.666 9.96271C306.74 9.93604 306.823 9.92004 306.914 9.91471C307.01 9.90938 307.119 9.90671 307.242 9.90671H309.978Z" fill="#FFF6F6"/>
                <path d="M423.454 15.2667V18.2187H427.438V20.3067H423.454V24.8427H420.734V13.1867H428.238V15.2667H423.454ZM443.687 19.0107C443.687 19.8534 443.54 20.6374 443.247 21.3627C442.959 22.088 442.551 22.72 442.023 23.2587C441.495 23.792 440.857 24.2107 440.111 24.5147C439.369 24.8187 438.545 24.9707 437.639 24.9707C436.732 24.9707 435.905 24.8187 435.159 24.5147C434.412 24.2107 433.772 23.792 433.239 23.2587C432.711 22.72 432.3 22.088 432.007 21.3627C431.719 20.6374 431.575 19.8534 431.575 19.0107C431.575 18.168 431.719 17.384 432.007 16.6587C432.3 15.9334 432.711 15.304 433.239 14.7707C433.772 14.2374 434.412 13.8187 435.159 13.5147C435.905 13.2107 436.732 13.0587 437.639 13.0587C438.545 13.0587 439.369 13.2134 440.111 13.5227C440.857 13.8267 441.495 14.2454 442.023 14.7787C442.551 15.312 442.959 15.9414 443.247 16.6667C443.54 17.392 443.687 18.1734 443.687 19.0107ZM440.919 19.0107C440.919 18.4347 440.844 17.9174 440.695 17.4587C440.545 16.9947 440.329 16.6027 440.047 16.2827C439.769 15.9627 439.428 15.7174 439.023 15.5467C438.617 15.376 438.156 15.2907 437.639 15.2907C437.116 15.2907 436.649 15.376 436.239 15.5467C435.833 15.7174 435.489 15.9627 435.207 16.2827C434.929 16.6027 434.716 16.9947 434.567 17.4587C434.417 17.9174 434.343 18.4347 434.343 19.0107C434.343 19.592 434.417 20.1147 434.567 20.5787C434.716 21.0374 434.929 21.4267 435.207 21.7467C435.489 22.0667 435.833 22.312 436.239 22.4827C436.649 22.648 437.116 22.7307 437.639 22.7307C438.156 22.7307 438.617 22.648 439.023 22.4827C439.428 22.312 439.769 22.0667 440.047 21.7467C440.329 21.4267 440.545 21.0374 440.695 20.5787C440.844 20.1147 440.919 19.592 440.919 19.0107ZM451.63 18.6667C451.998 18.6667 452.31 18.6214 452.566 18.5307C452.827 18.4347 453.041 18.304 453.206 18.1387C453.371 17.9734 453.491 17.7814 453.566 17.5627C453.641 17.3387 453.678 17.0987 453.678 16.8427C453.678 16.3307 453.51 15.9307 453.174 15.6427C452.843 15.3547 452.329 15.2107 451.63 15.2107H450.542V18.6667H451.63ZM457.374 24.8427H454.926C454.473 24.8427 454.147 24.672 453.95 24.3307L452.014 20.9467C451.923 20.8027 451.822 20.6987 451.71 20.6347C451.598 20.5654 451.438 20.5307 451.23 20.5307H450.542V24.8427H447.838V13.1867H451.63C452.473 13.1867 453.19 13.2747 453.782 13.4507C454.379 13.6214 454.865 13.8614 455.238 14.1707C455.617 14.48 455.891 14.8454 456.062 15.2667C456.233 15.688 456.318 16.1467 456.318 16.6427C456.318 17.0214 456.267 17.3787 456.166 17.7147C456.065 18.0507 455.915 18.3627 455.718 18.6507C455.521 18.9334 455.275 19.1867 454.982 19.4107C454.694 19.6347 454.361 19.8187 453.982 19.9627C454.158 20.0534 454.323 20.168 454.478 20.3067C454.633 20.44 454.771 20.6 454.894 20.7867L457.374 24.8427ZM469.055 15.3307H465.775V24.8427H463.071V15.3307H459.791V13.1867H469.055V15.3307ZM475.709 15.2667V17.9867H479.373V19.9867H475.709V22.7627H480.493V24.8427H472.989V13.1867H480.493V15.2667H475.709ZM480.549 9.90671L477.965 12.1867C477.901 12.2454 477.84 12.2907 477.781 12.3227C477.723 12.3547 477.661 12.3787 477.597 12.3947C477.533 12.4107 477.464 12.4214 477.389 12.4267C477.32 12.432 477.24 12.4347 477.149 12.4347H475.341L476.853 10.2747C476.917 10.1894 476.979 10.1227 477.037 10.0747C477.101 10.0214 477.168 9.98405 477.237 9.96271C477.312 9.93604 477.395 9.92004 477.485 9.91471C477.581 9.90938 477.691 9.90671 477.813 9.90671H480.549Z" fill="#FFF6F6"/>
                <path d="M594.025 15.2667V18.2187H598.009V20.3067H594.025V24.8427H591.305V13.1867H598.809V15.2667H594.025ZM614.258 19.0107C614.258 19.8534 614.112 20.6374 613.818 21.3627C613.53 22.088 613.122 22.72 612.594 23.2587C612.066 23.792 611.429 24.2107 610.682 24.5147C609.941 24.8187 609.117 24.9707 608.21 24.9707C607.304 24.9707 606.477 24.8187 605.73 24.5147C604.984 24.2107 604.344 23.792 603.81 23.2587C603.282 22.72 602.872 22.088 602.578 21.3627C602.29 20.6374 602.146 19.8534 602.146 19.0107C602.146 18.168 602.29 17.384 602.578 16.6587C602.872 15.9334 603.282 15.304 603.81 14.7707C604.344 14.2374 604.984 13.8187 605.73 13.5147C606.477 13.2107 607.304 13.0587 608.21 13.0587C609.117 13.0587 609.941 13.2134 610.682 13.5227C611.429 13.8267 612.066 14.2454 612.594 14.7787C613.122 15.312 613.53 15.9414 613.818 16.6667C614.112 17.392 614.258 18.1734 614.258 19.0107ZM611.49 19.0107C611.49 18.4347 611.416 17.9174 611.266 17.4587C611.117 16.9947 610.901 16.6027 610.618 16.2827C610.341 15.9627 610 15.7174 609.594 15.5467C609.189 15.376 608.728 15.2907 608.21 15.2907C607.688 15.2907 607.221 15.376 606.81 15.5467C606.405 15.7174 606.061 15.9627 605.778 16.2827C605.501 16.6027 605.288 16.9947 605.138 17.4587C604.989 17.9174 604.914 18.4347 604.914 19.0107C604.914 19.592 604.989 20.1147 605.138 20.5787C605.288 21.0374 605.501 21.4267 605.778 21.7467C606.061 22.0667 606.405 22.312 606.81 22.4827C607.221 22.648 607.688 22.7307 608.21 22.7307C608.728 22.7307 609.189 22.648 609.594 22.4827C610 22.312 610.341 22.0667 610.618 21.7467C610.901 21.4267 611.117 21.0374 611.266 20.5787C611.416 20.1147 611.49 19.592 611.49 19.0107ZM622.202 18.6667C622.57 18.6667 622.882 18.6214 623.138 18.5307C623.399 18.4347 623.612 18.304 623.778 18.1387C623.943 17.9734 624.063 17.7814 624.138 17.5627C624.212 17.3387 624.25 17.0987 624.25 16.8427C624.25 16.3307 624.082 15.9307 623.746 15.6427C623.415 15.3547 622.9 15.2107 622.202 15.2107H621.114V18.6667H622.202ZM627.946 24.8427H625.498C625.044 24.8427 624.719 24.672 624.522 24.3307L622.586 20.9467C622.495 20.8027 622.394 20.6987 622.282 20.6347C622.17 20.5654 622.01 20.5307 621.802 20.5307H621.114V24.8427H618.41V13.1867H622.202C623.044 13.1867 623.762 13.2747 624.354 13.4507C624.951 13.6214 625.436 13.8614 625.81 14.1707C626.188 14.48 626.463 14.8454 626.634 15.2667C626.804 15.688 626.89 16.1467 626.89 16.6427C626.89 17.0214 626.839 17.3787 626.738 17.7147C626.636 18.0507 626.487 18.3627 626.29 18.6507C626.092 18.9334 625.847 19.1867 625.554 19.4107C625.266 19.6347 624.932 19.8187 624.554 19.9627C624.73 20.0534 624.895 20.168 625.05 20.3067C625.204 20.44 625.343 20.6 625.466 20.7867L627.946 24.8427ZM639.627 15.3307H636.347V24.8427H633.643V15.3307H630.363V13.1867H639.627V15.3307ZM646.281 15.2667V17.9867H649.945V19.9867H646.281V22.7627H651.065V24.8427H643.561V13.1867H651.065V15.2667H646.281ZM651.121 9.90671L648.537 12.1867C648.473 12.2454 648.412 12.2907 648.353 12.3227C648.294 12.3547 648.233 12.3787 648.169 12.3947C648.105 12.4107 648.036 12.4214 647.961 12.4267C647.892 12.432 647.812 12.4347 647.721 12.4347H645.913L647.425 10.2747C647.489 10.1894 647.55 10.1227 647.609 10.0747C647.673 10.0214 647.74 9.98405 647.809 9.96271C647.884 9.93604 647.966 9.92004 648.057 9.91471C648.153 9.90938 648.262 9.90671 648.385 9.90671H651.121Z" fill="#FFF6F6"/>
                <path d="M764.597 15.2667V18.2187H768.581V20.3067H764.597V24.8427H761.877V13.1867H769.381V15.2667H764.597ZM784.83 19.0107C784.83 19.8534 784.683 20.6374 784.39 21.3627C784.102 22.088 783.694 22.72 783.166 23.2587C782.638 23.792 782 24.2107 781.254 24.5147C780.512 24.8187 779.688 24.9707 778.782 24.9707C777.875 24.9707 777.048 24.8187 776.302 24.5147C775.555 24.2107 774.915 23.792 774.382 23.2587C773.854 22.72 773.443 22.088 773.15 21.3627C772.862 20.6374 772.718 19.8534 772.718 19.0107C772.718 18.168 772.862 17.384 773.15 16.6587C773.443 15.9334 773.854 15.304 774.382 14.7707C774.915 14.2374 775.555 13.8187 776.302 13.5147C777.048 13.2107 777.875 13.0587 778.782 13.0587C779.688 13.0587 780.512 13.2134 781.254 13.5227C782 13.8267 782.638 14.2454 783.166 14.7787C783.694 15.312 784.102 15.9414 784.39 16.6667C784.683 17.392 784.83 18.1734 784.83 19.0107ZM782.062 19.0107C782.062 18.4347 781.987 17.9174 781.838 17.4587C781.688 16.9947 781.472 16.6027 781.19 16.2827C780.912 15.9627 780.571 15.7174 780.166 15.5467C779.76 15.376 779.299 15.2907 778.782 15.2907C778.259 15.2907 777.792 15.376 777.382 15.5467C776.976 15.7174 776.632 15.9627 776.35 16.2827C776.072 16.6027 775.859 16.9947 775.71 17.4587C775.56 17.9174 775.486 18.4347 775.486 19.0107C775.486 19.592 775.56 20.1147 775.71 20.5787C775.859 21.0374 776.072 21.4267 776.35 21.7467C776.632 22.0667 776.976 22.312 777.382 22.4827C777.792 22.648 778.259 22.7307 778.782 22.7307C779.299 22.7307 779.76 22.648 780.166 22.4827C780.571 22.312 780.912 22.0667 781.19 21.7467C781.472 21.4267 781.688 21.0374 781.838 20.5787C781.987 20.1147 782.062 19.592 782.062 19.0107ZM792.773 18.6667C793.141 18.6667 793.453 18.6214 793.709 18.5307C793.97 18.4347 794.184 18.304 794.349 18.1387C794.514 17.9734 794.634 17.7814 794.709 17.5627C794.784 17.3387 794.821 17.0987 794.821 16.8427C794.821 16.3307 794.653 15.9307 794.317 15.6427C793.986 15.3547 793.472 15.2107 792.773 15.2107H791.685V18.6667H792.773ZM798.517 24.8427H796.069C795.616 24.8427 795.29 24.672 795.093 24.3307L793.157 20.9467C793.066 20.8027 792.965 20.6987 792.853 20.6347C792.741 20.5654 792.581 20.5307 792.373 20.5307H791.685V24.8427H788.981V13.1867H792.773C793.616 13.1867 794.333 13.2747 794.925 13.4507C795.522 13.6214 796.008 13.8614 796.381 14.1707C796.76 14.48 797.034 14.8454 797.205 15.2667C797.376 15.688 797.461 16.1467 797.461 16.6427C797.461 17.0214 797.41 17.3787 797.309 17.7147C797.208 18.0507 797.058 18.3627 796.861 18.6507C796.664 18.9334 796.418 19.1867 796.125 19.4107C795.837 19.6347 795.504 19.8187 795.125 19.9627C795.301 20.0534 795.466 20.168 795.621 20.3067C795.776 20.44 795.914 20.6 796.037 20.7867L798.517 24.8427ZM810.198 15.3307H806.918V24.8427H804.214V15.3307H800.934V13.1867H810.198V15.3307ZM816.852 15.2667V17.9867H820.516V19.9867H816.852V22.7627H821.636V24.8427H814.132V13.1867H821.636V15.2667H816.852ZM821.692 9.90671L819.108 12.1867C819.044 12.2454 818.983 12.2907 818.924 12.3227C818.865 12.3547 818.804 12.3787 818.74 12.3947C818.676 12.4107 818.607 12.4214 818.532 12.4267C818.463 12.432 818.383 12.4347 818.292 12.4347H816.484L817.996 10.2747C818.06 10.1894 818.121 10.1227 818.18 10.0747C818.244 10.0214 818.311 9.98405 818.38 9.96271C818.455 9.93604 818.537 9.92004 818.628 9.91471C818.724 9.90938 818.833 9.90671 818.956 9.90671H821.692Z" fill="#FFF6F6"/>
                <path d="M935.168 15.2667V18.2187H939.152V20.3067H935.168V24.8427H932.448V13.1867H939.952V15.2667H935.168ZM955.401 19.0107C955.401 19.8534 955.255 20.6374 954.961 21.3627C954.673 22.088 954.265 22.72 953.737 23.2587C953.209 23.792 952.572 24.2107 951.825 24.5147C951.084 24.8187 950.26 24.9707 949.353 24.9707C948.447 24.9707 947.62 24.8187 946.873 24.5147C946.127 24.2107 945.487 23.792 944.953 23.2587C944.425 22.72 944.015 22.088 943.721 21.3627C943.433 20.6374 943.289 19.8534 943.289 19.0107C943.289 18.168 943.433 17.384 943.721 16.6587C944.015 15.9334 944.425 15.304 944.953 14.7707C945.487 14.2374 946.127 13.8187 946.873 13.5147C947.62 13.2107 948.447 13.0587 949.353 13.0587C950.26 13.0587 951.084 13.2134 951.825 13.5227C952.572 13.8267 953.209 14.2454 953.737 14.7787C954.265 15.312 954.673 15.9414 954.961 16.6667C955.255 17.392 955.401 18.1734 955.401 19.0107ZM952.633 19.0107C952.633 18.4347 952.559 17.9174 952.409 17.4587C952.26 16.9947 952.044 16.6027 951.761 16.2827C951.484 15.9627 951.143 15.7174 950.737 15.5467C950.332 15.376 949.871 15.2907 949.353 15.2907C948.831 15.2907 948.364 15.376 947.953 15.5467C947.548 15.7174 947.204 15.9627 946.921 16.2827C946.644 16.6027 946.431 16.9947 946.281 17.4587C946.132 17.9174 946.057 18.4347 946.057 19.0107C946.057 19.592 946.132 20.1147 946.281 20.5787C946.431 21.0374 946.644 21.4267 946.921 21.7467C947.204 22.0667 947.548 22.312 947.953 22.4827C948.364 22.648 948.831 22.7307 949.353 22.7307C949.871 22.7307 950.332 22.648 950.737 22.4827C951.143 22.312 951.484 22.0667 951.761 21.7467C952.044 21.4267 952.26 21.0374 952.409 20.5787C952.559 20.1147 952.633 19.592 952.633 19.0107ZM963.344 18.6667C963.712 18.6667 964.024 18.6214 964.28 18.5307C964.542 18.4347 964.755 18.304 964.92 18.1387C965.086 17.9734 965.206 17.7814 965.28 17.5627C965.355 17.3387 965.392 17.0987 965.392 16.8427C965.392 16.3307 965.224 15.9307 964.888 15.6427C964.558 15.3547 964.043 15.2107 963.344 15.2107H962.256V18.6667H963.344ZM969.088 24.8427H966.64C966.187 24.8427 965.862 24.672 965.664 24.3307L963.728 20.9467C963.638 20.8027 963.536 20.6987 963.424 20.6347C963.312 20.5654 963.152 20.5307 962.944 20.5307H962.256V24.8427H959.552V13.1867H963.344C964.187 13.1867 964.904 13.2747 965.496 13.4507C966.094 13.6214 966.579 13.8614 966.952 14.1707C967.331 14.48 967.606 14.8454 967.776 15.2667C967.947 15.688 968.032 16.1467 968.032 16.6427C968.032 17.0214 967.982 17.3787 967.88 17.7147C967.779 18.0507 967.63 18.3627 967.432 18.6507C967.235 18.9334 966.99 19.1867 966.696 19.4107C966.408 19.6347 966.075 19.8187 965.696 19.9627C965.872 20.0534 966.038 20.168 966.192 20.3067C966.347 20.44 966.486 20.6 966.608 20.7867L969.088 24.8427ZM980.77 15.3307H977.49V24.8427H974.786V15.3307H971.506V13.1867H980.77V15.3307ZM987.424 15.2667V17.9867H991.088V19.9867H987.424V22.7627H992.208V24.8427H984.704V13.1867H992.208V15.2667H987.424ZM992.264 9.90671L989.68 12.1867C989.616 12.2454 989.554 12.2907 989.496 12.3227C989.437 12.3547 989.376 12.3787 989.312 12.3947C989.248 12.4107 989.178 12.4214 989.104 12.4267C989.034 12.432 988.954 12.4347 988.864 12.4347H987.056L988.568 10.2747C988.632 10.1894 988.693 10.1227 988.752 10.0747C988.816 10.0214 988.882 9.98405 988.952 9.96271C989.026 9.93604 989.109 9.92004 989.2 9.91471C989.296 9.90938 989.405 9.90671 989.528 9.90671H992.264Z" fill="#FFF6F6"/>
                <path d="M1105.74 15.2667V18.2187H1109.72V20.3067H1105.74V24.8427H1103.02V13.1867H1110.52V15.2667H1105.74ZM1125.97 19.0107C1125.97 19.8534 1125.83 20.6374 1125.53 21.3627C1125.24 22.088 1124.84 22.72 1124.31 23.2587C1123.78 23.792 1123.14 24.2107 1122.4 24.5147C1121.65 24.8187 1120.83 24.9707 1119.92 24.9707C1119.02 24.9707 1118.19 24.8187 1117.44 24.5147C1116.7 24.2107 1116.06 23.792 1115.52 23.2587C1115 22.72 1114.59 22.088 1114.29 21.3627C1114 20.6374 1113.86 19.8534 1113.86 19.0107C1113.86 18.168 1114 17.384 1114.29 16.6587C1114.59 15.9334 1115 15.304 1115.52 14.7707C1116.06 14.2374 1116.7 13.8187 1117.44 13.5147C1118.19 13.2107 1119.02 13.0587 1119.92 13.0587C1120.83 13.0587 1121.65 13.2134 1122.4 13.5227C1123.14 13.8267 1123.78 14.2454 1124.31 14.7787C1124.84 15.312 1125.24 15.9414 1125.53 16.6667C1125.83 17.392 1125.97 18.1734 1125.97 19.0107ZM1123.2 19.0107C1123.2 18.4347 1123.13 17.9174 1122.98 17.4587C1122.83 16.9947 1122.61 16.6027 1122.33 16.2827C1122.05 15.9627 1121.71 15.7174 1121.31 15.5467C1120.9 15.376 1120.44 15.2907 1119.92 15.2907C1119.4 15.2907 1118.93 15.376 1118.52 15.5467C1118.12 15.7174 1117.77 15.9627 1117.49 16.2827C1117.21 16.6027 1117 16.9947 1116.85 17.4587C1116.7 17.9174 1116.63 18.4347 1116.63 19.0107C1116.63 19.592 1116.7 20.1147 1116.85 20.5787C1117 21.0374 1117.21 21.4267 1117.49 21.7467C1117.77 22.0667 1118.12 22.312 1118.52 22.4827C1118.93 22.648 1119.4 22.7307 1119.92 22.7307C1120.44 22.7307 1120.9 22.648 1121.31 22.4827C1121.71 22.312 1122.05 22.0667 1122.33 21.7467C1122.61 21.4267 1122.83 21.0374 1122.98 20.5787C1123.13 20.1147 1123.2 19.592 1123.2 19.0107ZM1133.92 18.6667C1134.28 18.6667 1134.6 18.6214 1134.85 18.5307C1135.11 18.4347 1135.33 18.304 1135.49 18.1387C1135.66 17.9734 1135.78 17.7814 1135.85 17.5627C1135.93 17.3387 1135.96 17.0987 1135.96 16.8427C1135.96 16.3307 1135.8 15.9307 1135.46 15.6427C1135.13 15.3547 1134.61 15.2107 1133.92 15.2107H1132.83V18.6667H1133.92ZM1139.66 24.8427H1137.21C1136.76 24.8427 1136.43 24.672 1136.24 24.3307L1134.3 20.9467C1134.21 20.8027 1134.11 20.6987 1134 20.6347C1133.88 20.5654 1133.72 20.5307 1133.52 20.5307H1132.83V24.8427H1130.12V13.1867H1133.92C1134.76 13.1867 1135.48 13.2747 1136.07 13.4507C1136.66 13.6214 1137.15 13.8614 1137.52 14.1707C1137.9 14.48 1138.18 14.8454 1138.35 15.2667C1138.52 15.688 1138.6 16.1467 1138.6 16.6427C1138.6 17.0214 1138.55 17.3787 1138.45 17.7147C1138.35 18.0507 1138.2 18.3627 1138 18.6507C1137.81 18.9334 1137.56 19.1867 1137.27 19.4107C1136.98 19.6347 1136.65 19.8187 1136.27 19.9627C1136.44 20.0534 1136.61 20.168 1136.76 20.3067C1136.92 20.44 1137.06 20.6 1137.18 20.7867L1139.66 24.8427ZM1151.34 15.3307H1148.06V24.8427H1145.36V15.3307H1142.08V13.1867H1151.34V15.3307ZM1157.99 15.2667V17.9867H1161.66V19.9867H1157.99V22.7627H1162.78V24.8427H1155.27V13.1867H1162.78V15.2667H1157.99ZM1162.83 9.90671L1160.25 12.1867C1160.19 12.2454 1160.13 12.2907 1160.07 12.3227C1160.01 12.3547 1159.95 12.3787 1159.88 12.3947C1159.82 12.4107 1159.75 12.4214 1159.67 12.4267C1159.61 12.432 1159.53 12.4347 1159.43 12.4347H1157.63L1159.14 10.2747C1159.2 10.1894 1159.26 10.1227 1159.32 10.0747C1159.39 10.0214 1159.45 9.98405 1159.52 9.96271C1159.6 9.93604 1159.68 9.92004 1159.77 9.91471C1159.87 9.90938 1159.98 9.90671 1160.1 9.90671H1162.83Z" fill="#FFF6F6"/>
                <path d="M1276.31 15.2667V18.2187H1280.29V20.3067H1276.31V24.8427H1273.59V13.1867H1281.09V15.2667H1276.31ZM1296.54 19.0107C1296.54 19.8534 1296.4 20.6374 1296.1 21.3627C1295.82 22.088 1295.41 22.72 1294.88 23.2587C1294.35 23.792 1293.71 24.2107 1292.97 24.5147C1292.23 24.8187 1291.4 24.9707 1290.5 24.9707C1289.59 24.9707 1288.76 24.8187 1288.02 24.5147C1287.27 24.2107 1286.63 23.792 1286.1 23.2587C1285.57 22.72 1285.16 22.088 1284.86 21.3627C1284.58 20.6374 1284.43 19.8534 1284.43 19.0107C1284.43 18.168 1284.58 17.384 1284.86 16.6587C1285.16 15.9334 1285.57 15.304 1286.1 14.7707C1286.63 14.2374 1287.27 13.8187 1288.02 13.5147C1288.76 13.2107 1289.59 13.0587 1290.5 13.0587C1291.4 13.0587 1292.23 13.2134 1292.97 13.5227C1293.71 13.8267 1294.35 14.2454 1294.88 14.7787C1295.41 15.312 1295.82 15.9414 1296.1 16.6667C1296.4 17.392 1296.54 18.1734 1296.54 19.0107ZM1293.78 19.0107C1293.78 18.4347 1293.7 17.9174 1293.55 17.4587C1293.4 16.9947 1293.19 16.6027 1292.9 16.2827C1292.63 15.9627 1292.29 15.7174 1291.88 15.5467C1291.47 15.376 1291.01 15.2907 1290.5 15.2907C1289.97 15.2907 1289.51 15.376 1289.1 15.5467C1288.69 15.7174 1288.35 15.9627 1288.06 16.2827C1287.79 16.6027 1287.57 16.9947 1287.42 17.4587C1287.27 17.9174 1287.2 18.4347 1287.2 19.0107C1287.2 19.592 1287.27 20.1147 1287.42 20.5787C1287.57 21.0374 1287.79 21.4267 1288.06 21.7467C1288.35 22.0667 1288.69 22.312 1289.1 22.4827C1289.51 22.648 1289.97 22.7307 1290.5 22.7307C1291.01 22.7307 1291.47 22.648 1291.88 22.4827C1292.29 22.312 1292.63 22.0667 1292.9 21.7467C1293.19 21.4267 1293.4 21.0374 1293.55 20.5787C1293.7 20.1147 1293.78 19.592 1293.78 19.0107ZM1304.49 18.6667C1304.86 18.6667 1305.17 18.6214 1305.42 18.5307C1305.68 18.4347 1305.9 18.304 1306.06 18.1387C1306.23 17.9734 1306.35 17.7814 1306.42 17.5627C1306.5 17.3387 1306.54 17.0987 1306.54 16.8427C1306.54 16.3307 1306.37 15.9307 1306.03 15.6427C1305.7 15.3547 1305.19 15.2107 1304.49 15.2107H1303.4V18.6667H1304.49ZM1310.23 24.8427H1307.78C1307.33 24.8427 1307 24.672 1306.81 24.3307L1304.87 20.9467C1304.78 20.8027 1304.68 20.6987 1304.57 20.6347C1304.46 20.5654 1304.3 20.5307 1304.09 20.5307H1303.4V24.8427H1300.7V13.1867H1304.49C1305.33 13.1867 1306.05 13.2747 1306.64 13.4507C1307.24 13.6214 1307.72 13.8614 1308.1 14.1707C1308.47 14.48 1308.75 14.8454 1308.92 15.2667C1309.09 15.688 1309.18 16.1467 1309.18 16.6427C1309.18 17.0214 1309.12 17.3787 1309.02 17.7147C1308.92 18.0507 1308.77 18.3627 1308.58 18.6507C1308.38 18.9334 1308.13 19.1867 1307.84 19.4107C1307.55 19.6347 1307.22 19.8187 1306.84 19.9627C1307.02 20.0534 1307.18 20.168 1307.34 20.3067C1307.49 20.44 1307.63 20.6 1307.75 20.7867L1310.23 24.8427ZM1321.91 15.3307H1318.63V24.8427H1315.93V15.3307H1312.65V13.1867H1321.91V15.3307ZM1328.57 15.2667V17.9867H1332.23V19.9867H1328.57V22.7627H1333.35V24.8427H1325.85V13.1867H1333.35V15.2667H1328.57ZM1333.41 9.90671L1330.82 12.1867C1330.76 12.2454 1330.7 12.2907 1330.64 12.3227C1330.58 12.3547 1330.52 12.3787 1330.45 12.3947C1330.39 12.4107 1330.32 12.4214 1330.25 12.4267C1330.18 12.432 1330.1 12.4347 1330.01 12.4347H1328.2L1329.71 10.2747C1329.77 10.1894 1329.84 10.1227 1329.89 10.0747C1329.96 10.0214 1330.02 9.98405 1330.09 9.96271C1330.17 9.93604 1330.25 9.92004 1330.34 9.91471C1330.44 9.90938 1330.55 9.90671 1330.67 9.90671H1333.41Z" fill="#FFF6F6"/>
                <path d="M1446.88 15.2667V18.2187H1450.87V20.3067H1446.88V24.8427H1444.16V13.1867H1451.67V15.2667H1446.88ZM1467.12 19.0107C1467.12 19.8534 1466.97 20.6374 1466.68 21.3627C1466.39 22.088 1465.98 22.72 1465.45 23.2587C1464.92 23.792 1464.29 24.2107 1463.54 24.5147C1462.8 24.8187 1461.97 24.9707 1461.07 24.9707C1460.16 24.9707 1459.33 24.8187 1458.59 24.5147C1457.84 24.2107 1457.2 23.792 1456.67 23.2587C1456.14 22.72 1455.73 22.088 1455.44 21.3627C1455.15 20.6374 1455 19.8534 1455 19.0107C1455 18.168 1455.15 17.384 1455.44 16.6587C1455.73 15.9334 1456.14 15.304 1456.67 14.7707C1457.2 14.2374 1457.84 13.8187 1458.59 13.5147C1459.33 13.2107 1460.16 13.0587 1461.07 13.0587C1461.97 13.0587 1462.8 13.2134 1463.54 13.5227C1464.29 13.8267 1464.92 14.2454 1465.45 14.7787C1465.98 15.312 1466.39 15.9414 1466.68 16.6667C1466.97 17.392 1467.12 18.1734 1467.12 19.0107ZM1464.35 19.0107C1464.35 18.4347 1464.27 17.9174 1464.12 17.4587C1463.97 16.9947 1463.76 16.6027 1463.48 16.2827C1463.2 15.9627 1462.86 15.7174 1462.45 15.5467C1462.05 15.376 1461.58 15.2907 1461.07 15.2907C1460.54 15.2907 1460.08 15.376 1459.67 15.5467C1459.26 15.7174 1458.92 15.9627 1458.64 16.2827C1458.36 16.6027 1458.14 16.9947 1458 17.4587C1457.85 17.9174 1457.77 18.4347 1457.77 19.0107C1457.77 19.592 1457.85 20.1147 1458 20.5787C1458.14 21.0374 1458.36 21.4267 1458.64 21.7467C1458.92 22.0667 1459.26 22.312 1459.67 22.4827C1460.08 22.648 1460.54 22.7307 1461.07 22.7307C1461.58 22.7307 1462.05 22.648 1462.45 22.4827C1462.86 22.312 1463.2 22.0667 1463.48 21.7467C1463.76 21.4267 1463.97 21.0374 1464.12 20.5787C1464.27 20.1147 1464.35 19.592 1464.35 19.0107ZM1475.06 18.6667C1475.43 18.6667 1475.74 18.6214 1475.99 18.5307C1476.26 18.4347 1476.47 18.304 1476.63 18.1387C1476.8 17.9734 1476.92 17.7814 1476.99 17.5627C1477.07 17.3387 1477.11 17.0987 1477.11 16.8427C1477.11 16.3307 1476.94 15.9307 1476.6 15.6427C1476.27 15.3547 1475.76 15.2107 1475.06 15.2107H1473.97V18.6667H1475.06ZM1480.8 24.8427H1478.35C1477.9 24.8427 1477.58 24.672 1477.38 24.3307L1475.44 20.9467C1475.35 20.8027 1475.25 20.6987 1475.14 20.6347C1475.03 20.5654 1474.87 20.5307 1474.66 20.5307H1473.97V24.8427H1471.27V13.1867H1475.06C1475.9 13.1867 1476.62 13.2747 1477.21 13.4507C1477.81 13.6214 1478.29 13.8614 1478.67 14.1707C1479.05 14.48 1479.32 14.8454 1479.49 15.2667C1479.66 15.688 1479.75 16.1467 1479.75 16.6427C1479.75 17.0214 1479.7 17.3787 1479.59 17.7147C1479.49 18.0507 1479.34 18.3627 1479.15 18.6507C1478.95 18.9334 1478.7 19.1867 1478.41 19.4107C1478.12 19.6347 1477.79 19.8187 1477.41 19.9627C1477.59 20.0534 1477.75 20.168 1477.91 20.3067C1478.06 20.44 1478.2 20.6 1478.32 20.7867L1480.8 24.8427ZM1492.48 15.3307H1489.2V24.8427H1486.5V15.3307H1483.22V13.1867H1492.48V15.3307ZM1499.14 15.2667V17.9867H1502.8V19.9867H1499.14V22.7627H1503.92V24.8427H1496.42V13.1867H1503.92V15.2667H1499.14ZM1503.98 9.90671L1501.39 12.1867C1501.33 12.2454 1501.27 12.2907 1501.21 12.3227C1501.15 12.3547 1501.09 12.3787 1501.03 12.3947C1500.96 12.4107 1500.89 12.4214 1500.82 12.4267C1500.75 12.432 1500.67 12.4347 1500.58 12.4347H1498.77L1500.28 10.2747C1500.35 10.1894 1500.41 10.1227 1500.47 10.0747C1500.53 10.0214 1500.6 9.98405 1500.67 9.96271C1500.74 9.93604 1500.82 9.92004 1500.91 9.91471C1501.01 9.90938 1501.12 9.90671 1501.24 9.90671H1503.98Z" fill="#FFF6F6"/>
                <path d="M145.118 748.997V746.045H141.134V743.957H145.118V739.421H147.838V751.077H140.334V748.997H145.118ZM124.885 745.253C124.885 744.41 125.031 743.626 125.325 742.901C125.613 742.175 126.021 741.543 126.549 741.005C127.077 740.471 127.714 740.053 128.461 739.749C129.202 739.445 130.026 739.293 130.933 739.293C131.839 739.293 132.666 739.445 133.413 739.749C134.159 740.053 134.799 740.471 135.333 741.005C135.861 741.543 136.271 742.175 136.565 742.901C136.853 743.626 136.997 744.41 136.997 745.253C136.997 746.095 136.853 746.879 136.565 747.605C136.271 748.33 135.861 748.959 135.333 749.493C134.799 750.026 134.159 750.445 133.413 750.749C132.666 751.053 131.839 751.205 130.933 751.205C130.026 751.205 129.202 751.05 128.461 750.741C127.714 750.437 127.077 750.018 126.549 749.485C126.021 748.951 125.613 748.322 125.325 747.597C125.031 746.871 124.885 746.09 124.885 745.253ZM127.653 745.253C127.653 745.829 127.727 746.346 127.877 746.805C128.026 747.269 128.242 747.661 128.525 747.981C128.802 748.301 129.143 748.546 129.549 748.717C129.954 748.887 130.415 748.973 130.933 748.973C131.455 748.973 131.922 748.887 132.333 748.717C132.738 748.546 133.082 748.301 133.365 747.981C133.642 747.661 133.855 747.269 134.005 746.805C134.154 746.346 134.229 745.829 134.229 745.253C134.229 744.671 134.154 744.149 134.005 743.685C133.855 743.226 133.642 742.837 133.365 742.517C133.082 742.197 132.738 741.951 132.333 741.781C131.922 741.615 131.455 741.533 130.933 741.533C130.415 741.533 129.954 741.615 129.549 741.781C129.143 741.951 128.802 742.197 128.525 742.517C128.242 742.837 128.026 743.226 127.877 743.685C127.727 744.149 127.653 744.671 127.653 745.253ZM116.941 745.597C116.573 745.597 116.261 745.642 116.005 745.733C115.744 745.829 115.531 745.959 115.365 746.125C115.2 746.29 115.08 746.482 115.005 746.701C114.931 746.925 114.893 747.165 114.893 747.421C114.893 747.933 115.061 748.333 115.397 748.621C115.728 748.909 116.243 749.053 116.941 749.053H118.029V745.597H116.941ZM111.197 739.421H113.645C114.099 739.421 114.424 739.591 114.621 739.933L116.557 743.317C116.648 743.461 116.749 743.565 116.861 743.629C116.973 743.698 117.133 743.733 117.341 743.733H118.029V739.421H120.733V751.077H116.941C116.099 751.077 115.381 750.989 114.789 750.813C114.192 750.642 113.707 750.402 113.333 750.093C112.955 749.783 112.68 749.418 112.509 748.997C112.339 748.575 112.253 748.117 112.253 747.621C112.253 747.242 112.304 746.885 112.405 746.549C112.507 746.213 112.656 745.901 112.853 745.613C113.051 745.33 113.296 745.077 113.589 744.853C113.877 744.629 114.211 744.445 114.589 744.301C114.413 744.21 114.248 744.095 114.093 743.957C113.939 743.823 113.8 743.663 113.677 743.477L111.197 739.421ZM99.5162 748.933H102.796V739.421H105.5V748.933H108.78V751.077H99.5162V748.933ZM92.8622 748.997V746.277H89.1982V744.277H92.8622V741.501H88.0782V739.421H95.5822V751.077H88.0782V748.997H92.8622ZM88.0222 754.357L90.6062 752.077C90.6702 752.018 90.7315 751.973 90.7902 751.941C90.8489 751.909 90.9102 751.885 90.9742 751.869C91.0382 751.853 91.1075 751.842 91.1822 751.837C91.2515 751.831 91.3315 751.829 91.4222 751.829H93.2302L91.7182 753.989C91.6542 754.074 91.5929 754.141 91.5342 754.189C91.4702 754.242 91.4035 754.279 91.3342 754.301C91.2595 754.327 91.1769 754.343 91.0862 754.349C90.9902 754.354 90.8809 754.357 90.7582 754.357H88.0222Z" fill="#FFF6F6"/>
                <path d="M315.689 748.997V746.045H311.705V743.957H315.689V739.421H318.409V751.077H310.905V748.997H315.689ZM295.456 745.253C295.456 744.41 295.603 743.626 295.896 742.901C296.184 742.175 296.592 741.543 297.12 741.005C297.648 740.471 298.285 740.053 299.032 739.749C299.773 739.445 300.597 739.293 301.504 739.293C302.411 739.293 303.237 739.445 303.984 739.749C304.731 740.053 305.371 740.471 305.904 741.005C306.432 741.543 306.843 742.175 307.136 742.901C307.424 743.626 307.568 744.41 307.568 745.253C307.568 746.095 307.424 746.879 307.136 747.605C306.843 748.33 306.432 748.959 305.904 749.493C305.371 750.026 304.731 750.445 303.984 750.749C303.237 751.053 302.411 751.205 301.504 751.205C300.597 751.205 299.773 751.05 299.032 750.741C298.285 750.437 297.648 750.018 297.12 749.485C296.592 748.951 296.184 748.322 295.896 747.597C295.603 746.871 295.456 746.09 295.456 745.253ZM298.224 745.253C298.224 745.829 298.299 746.346 298.448 746.805C298.597 747.269 298.813 747.661 299.096 747.981C299.373 748.301 299.715 748.546 300.12 748.717C300.525 748.887 300.987 748.973 301.504 748.973C302.027 748.973 302.493 748.887 302.904 748.717C303.309 748.546 303.653 748.301 303.936 747.981C304.213 747.661 304.427 747.269 304.576 746.805C304.725 746.346 304.8 745.829 304.8 745.253C304.8 744.671 304.725 744.149 304.576 743.685C304.427 743.226 304.213 742.837 303.936 742.517C303.653 742.197 303.309 741.951 302.904 741.781C302.493 741.615 302.027 741.533 301.504 741.533C300.987 741.533 300.525 741.615 300.12 741.781C299.715 741.951 299.373 742.197 299.096 742.517C298.813 742.837 298.597 743.226 298.448 743.685C298.299 744.149 298.224 744.671 298.224 745.253ZM287.513 745.597C287.145 745.597 286.833 745.642 286.577 745.733C286.316 745.829 286.102 745.959 285.937 746.125C285.772 746.29 285.652 746.482 285.577 746.701C285.502 746.925 285.465 747.165 285.465 747.421C285.465 747.933 285.633 748.333 285.969 748.621C286.3 748.909 286.814 749.053 287.513 749.053H288.601V745.597H287.513ZM281.769 739.421H284.217C284.67 739.421 284.996 739.591 285.193 739.933L287.129 743.317C287.22 743.461 287.321 743.565 287.433 743.629C287.545 743.698 287.705 743.733 287.913 743.733H288.601V739.421H291.305V751.077H287.513C286.67 751.077 285.953 750.989 285.361 750.813C284.764 750.642 284.278 750.402 283.905 750.093C283.526 749.783 283.252 749.418 283.081 748.997C282.91 748.575 282.825 748.117 282.825 747.621C282.825 747.242 282.876 746.885 282.977 746.549C283.078 746.213 283.228 745.901 283.425 745.613C283.622 745.33 283.868 745.077 284.161 744.853C284.449 744.629 284.782 744.445 285.161 744.301C284.985 744.21 284.82 744.095 284.665 743.957C284.51 743.823 284.372 743.663 284.249 743.477L281.769 739.421ZM270.088 748.933H273.368V739.421H276.072V748.933H279.352V751.077H270.088V748.933ZM263.434 748.997V746.277H259.77V744.277H263.434V741.501H258.65V739.421H266.154V751.077H258.65V748.997H263.434ZM258.594 754.357L261.178 752.077C261.242 752.018 261.303 751.973 261.362 751.941C261.42 751.909 261.482 751.885 261.546 751.869C261.61 751.853 261.679 751.842 261.754 751.837C261.823 751.831 261.903 751.829 261.994 751.829H263.802L262.29 753.989C262.226 754.074 262.164 754.141 262.106 754.189C262.042 754.242 261.975 754.279 261.906 754.301C261.831 754.327 261.748 754.343 261.658 754.349C261.562 754.354 261.452 754.357 261.33 754.357H258.594Z" fill="#FFF6F6"/>
                <path d="M486.261 748.997V746.045H482.277V743.957H486.261V739.421H488.981V751.077H481.477V748.997H486.261ZM466.027 745.253C466.027 744.41 466.174 743.626 466.467 742.901C466.755 742.175 467.163 741.543 467.691 741.005C468.219 740.471 468.857 740.053 469.603 739.749C470.345 739.445 471.169 739.293 472.075 739.293C472.982 739.293 473.809 739.445 474.555 739.749C475.302 740.053 475.942 740.471 476.475 741.005C477.003 741.543 477.414 742.175 477.707 742.901C477.995 743.626 478.139 744.41 478.139 745.253C478.139 746.095 477.995 746.879 477.707 747.605C477.414 748.33 477.003 748.959 476.475 749.493C475.942 750.026 475.302 750.445 474.555 750.749C473.809 751.053 472.982 751.205 472.075 751.205C471.169 751.205 470.345 751.05 469.603 750.741C468.857 750.437 468.219 750.018 467.691 749.485C467.163 748.951 466.755 748.322 466.467 747.597C466.174 746.871 466.027 746.09 466.027 745.253ZM468.795 745.253C468.795 745.829 468.87 746.346 469.019 746.805C469.169 747.269 469.385 747.661 469.667 747.981C469.945 748.301 470.286 748.546 470.691 748.717C471.097 748.887 471.558 748.973 472.075 748.973C472.598 748.973 473.065 748.887 473.475 748.717C473.881 748.546 474.225 748.301 474.507 747.981C474.785 747.661 474.998 747.269 475.147 746.805C475.297 746.346 475.371 745.829 475.371 745.253C475.371 744.671 475.297 744.149 475.147 743.685C474.998 743.226 474.785 742.837 474.507 742.517C474.225 742.197 473.881 741.951 473.475 741.781C473.065 741.615 472.598 741.533 472.075 741.533C471.558 741.533 471.097 741.615 470.691 741.781C470.286 741.951 469.945 742.197 469.667 742.517C469.385 742.837 469.169 743.226 469.019 743.685C468.87 744.149 468.795 744.671 468.795 745.253ZM458.084 745.597C457.716 745.597 457.404 745.642 457.148 745.733C456.887 745.829 456.673 745.959 456.508 746.125C456.343 746.29 456.223 746.482 456.148 746.701C456.073 746.925 456.036 747.165 456.036 747.421C456.036 747.933 456.204 748.333 456.54 748.621C456.871 748.909 457.385 749.053 458.084 749.053H459.172V745.597H458.084ZM452.34 739.421H454.788C455.241 739.421 455.567 739.591 455.764 739.933L457.7 743.317C457.791 743.461 457.892 743.565 458.004 743.629C458.116 743.698 458.276 743.733 458.484 743.733H459.172V739.421H461.876V751.077H458.084C457.241 751.077 456.524 750.989 455.932 750.813C455.335 750.642 454.849 750.402 454.476 750.093C454.097 749.783 453.823 749.418 453.652 748.997C453.481 748.575 453.396 748.117 453.396 747.621C453.396 747.242 453.447 746.885 453.548 746.549C453.649 746.213 453.799 745.901 453.996 745.613C454.193 745.33 454.439 745.077 454.732 744.853C455.02 744.629 455.353 744.445 455.732 744.301C455.556 744.21 455.391 744.095 455.236 743.957C455.081 743.823 454.943 743.663 454.82 743.477L452.34 739.421ZM440.659 748.933H443.939V739.421H446.643V748.933H449.923V751.077H440.659V748.933ZM434.005 748.997V746.277H430.341V744.277H434.005V741.501H429.221V739.421H436.725V751.077H429.221V748.997H434.005ZM429.165 754.357L431.749 752.077C431.813 752.018 431.874 751.973 431.933 751.941C431.992 751.909 432.053 751.885 432.117 751.869C432.181 751.853 432.25 751.842 432.325 751.837C432.394 751.831 432.474 751.829 432.565 751.829H434.373L432.861 753.989C432.797 754.074 432.736 754.141 432.677 754.189C432.613 754.242 432.546 754.279 432.477 754.301C432.402 754.327 432.32 754.343 432.229 754.349C432.133 754.354 432.024 754.357 431.901 754.357H429.165Z" fill="#FFF6F6"/>
                <path d="M656.832 748.997V746.045H652.848V743.957H656.832V739.421H659.552V751.077H652.048V748.997H656.832ZM636.599 745.253C636.599 744.41 636.745 743.626 637.039 742.901C637.327 742.175 637.735 741.543 638.263 741.005C638.791 740.471 639.428 740.053 640.175 739.749C640.916 739.445 641.74 739.293 642.647 739.293C643.553 739.293 644.38 739.445 645.127 739.749C645.873 740.053 646.513 740.471 647.047 741.005C647.575 741.543 647.985 742.175 648.279 742.901C648.567 743.626 648.711 744.41 648.711 745.253C648.711 746.095 648.567 746.879 648.279 747.605C647.985 748.33 647.575 748.959 647.047 749.493C646.513 750.026 645.873 750.445 645.127 750.749C644.38 751.053 643.553 751.205 642.647 751.205C641.74 751.205 640.916 751.05 640.175 750.741C639.428 750.437 638.791 750.018 638.263 749.485C637.735 748.951 637.327 748.322 637.039 747.597C636.745 746.871 636.599 746.09 636.599 745.253ZM639.367 745.253C639.367 745.829 639.441 746.346 639.591 746.805C639.74 747.269 639.956 747.661 640.239 747.981C640.516 748.301 640.857 748.546 641.263 748.717C641.668 748.887 642.129 748.973 642.647 748.973C643.169 748.973 643.636 748.887 644.047 748.717C644.452 748.546 644.796 748.301 645.079 747.981C645.356 747.661 645.569 747.269 645.719 746.805C645.868 746.346 645.943 745.829 645.943 745.253C645.943 744.671 645.868 744.149 645.719 743.685C645.569 743.226 645.356 742.837 645.079 742.517C644.796 742.197 644.452 741.951 644.047 741.781C643.636 741.615 643.169 741.533 642.647 741.533C642.129 741.533 641.668 741.615 641.263 741.781C640.857 741.951 640.516 742.197 640.239 742.517C639.956 742.837 639.74 743.226 639.591 743.685C639.441 744.149 639.367 744.671 639.367 745.253ZM628.656 745.597C628.288 745.597 627.976 745.642 627.72 745.733C627.458 745.829 627.245 745.959 627.08 746.125C626.914 746.29 626.794 746.482 626.72 746.701C626.645 746.925 626.608 747.165 626.608 747.421C626.608 747.933 626.776 748.333 627.112 748.621C627.442 748.909 627.957 749.053 628.656 749.053H629.744V745.597H628.656ZM622.912 739.421H625.36C625.813 739.421 626.138 739.591 626.336 739.933L628.272 743.317C628.362 743.461 628.464 743.565 628.576 743.629C628.688 743.698 628.848 743.733 629.056 743.733H629.744V739.421H632.448V751.077H628.656C627.813 751.077 627.096 750.989 626.504 750.813C625.906 750.642 625.421 750.402 625.048 750.093C624.669 749.783 624.394 749.418 624.224 748.997C624.053 748.575 623.968 748.117 623.968 747.621C623.968 747.242 624.018 746.885 624.12 746.549C624.221 746.213 624.37 745.901 624.568 745.613C624.765 745.33 625.01 745.077 625.304 744.853C625.592 744.629 625.925 744.445 626.304 744.301C626.128 744.21 625.962 744.095 625.808 743.957C625.653 743.823 625.514 743.663 625.392 743.477L622.912 739.421ZM611.23 748.933H614.51V739.421H617.214V748.933H620.494V751.077H611.23V748.933ZM604.576 748.997V746.277H600.912V744.277H604.576V741.501H599.792V739.421H607.296V751.077H599.792V748.997H604.576ZM599.736 754.357L602.32 752.077C602.384 752.018 602.446 751.973 602.504 751.941C602.563 751.909 602.624 751.885 602.688 751.869C602.752 751.853 602.822 751.842 602.896 751.837C602.966 751.831 603.046 751.829 603.136 751.829H604.944L603.432 753.989C603.368 754.074 603.307 754.141 603.248 754.189C603.184 754.242 603.118 754.279 603.048 754.301C602.974 754.327 602.891 754.343 602.8 754.349C602.704 754.354 602.595 754.357 602.472 754.357H599.736Z" fill="#FFF6F6"/>
                <path d="M827.403 748.997V746.045H823.419V743.957H827.403V739.421H830.123V751.077H822.619V748.997H827.403ZM807.17 745.253C807.17 744.41 807.317 743.626 807.61 742.901C807.898 742.175 808.306 741.543 808.834 741.005C809.362 740.471 810 740.053 810.746 739.749C811.488 739.445 812.312 739.293 813.218 739.293C814.125 739.293 814.952 739.445 815.698 739.749C816.445 740.053 817.085 740.471 817.618 741.005C818.146 741.543 818.557 742.175 818.85 742.901C819.138 743.626 819.282 744.41 819.282 745.253C819.282 746.095 819.138 746.879 818.85 747.605C818.557 748.33 818.146 748.959 817.618 749.493C817.085 750.026 816.445 750.445 815.698 750.749C814.952 751.053 814.125 751.205 813.218 751.205C812.312 751.205 811.488 751.05 810.746 750.741C810 750.437 809.362 750.018 808.834 749.485C808.306 748.951 807.898 748.322 807.61 747.597C807.317 746.871 807.17 746.09 807.17 745.253ZM809.938 745.253C809.938 745.829 810.013 746.346 810.162 746.805C810.312 747.269 810.528 747.661 810.81 747.981C811.088 748.301 811.429 748.546 811.834 748.717C812.24 748.887 812.701 748.973 813.218 748.973C813.741 748.973 814.208 748.887 814.618 748.717C815.024 748.546 815.368 748.301 815.65 747.981C815.928 747.661 816.141 747.269 816.29 746.805C816.44 746.346 816.514 745.829 816.514 745.253C816.514 744.671 816.44 744.149 816.29 743.685C816.141 743.226 815.928 742.837 815.65 742.517C815.368 742.197 815.024 741.951 814.618 741.781C814.208 741.615 813.741 741.533 813.218 741.533C812.701 741.533 812.24 741.615 811.834 741.781C811.429 741.951 811.088 742.197 810.81 742.517C810.528 742.837 810.312 743.226 810.162 743.685C810.013 744.149 809.938 744.671 809.938 745.253ZM799.227 745.597C798.859 745.597 798.547 745.642 798.291 745.733C798.03 745.829 797.816 745.959 797.651 746.125C797.486 746.29 797.366 746.482 797.291 746.701C797.216 746.925 797.179 747.165 797.179 747.421C797.179 747.933 797.347 748.333 797.683 748.621C798.014 748.909 798.528 749.053 799.227 749.053H800.315V745.597H799.227ZM793.483 739.421H795.931C796.384 739.421 796.71 739.591 796.907 739.933L798.843 743.317C798.934 743.461 799.035 743.565 799.147 743.629C799.259 743.698 799.419 743.733 799.627 743.733H800.315V739.421H803.019V751.077H799.227C798.384 751.077 797.667 750.989 797.075 750.813C796.478 750.642 795.992 750.402 795.619 750.093C795.24 749.783 794.966 749.418 794.795 748.997C794.624 748.575 794.539 748.117 794.539 747.621C794.539 747.242 794.59 746.885 794.691 746.549C794.792 746.213 794.942 745.901 795.139 745.613C795.336 745.33 795.582 745.077 795.875 744.853C796.163 744.629 796.496 744.445 796.875 744.301C796.699 744.21 796.534 744.095 796.379 743.957C796.224 743.823 796.086 743.663 795.963 743.477L793.483 739.421ZM781.802 748.933H785.082V739.421H787.786V748.933H791.066V751.077H781.802V748.933ZM775.148 748.997V746.277H771.484V744.277H775.148V741.501H770.364V739.421H777.868V751.077H770.364V748.997H775.148ZM770.308 754.357L772.892 752.077C772.956 752.018 773.017 751.973 773.076 751.941C773.135 751.909 773.196 751.885 773.26 751.869C773.324 751.853 773.393 751.842 773.468 751.837C773.537 751.831 773.617 751.829 773.708 751.829H775.516L774.004 753.989C773.94 754.074 773.879 754.141 773.82 754.189C773.756 754.242 773.689 754.279 773.62 754.301C773.545 754.327 773.463 754.343 773.372 754.349C773.276 754.354 773.167 754.357 773.044 754.357H770.308Z" fill="#FFF6F6"/>
                <path d="M997.975 748.997V746.045H993.991V743.957H997.975V739.421H1000.69V751.077H993.191V748.997H997.975ZM977.742 745.253C977.742 744.41 977.889 743.626 978.182 742.901C978.47 742.175 978.878 741.543 979.406 741.005C979.934 740.471 980.571 740.053 981.318 739.749C982.059 739.445 982.883 739.293 983.79 739.293C984.697 739.293 985.523 739.445 986.27 739.749C987.017 740.053 987.657 740.471 988.19 741.005C988.718 741.543 989.129 742.175 989.422 742.901C989.71 743.626 989.854 744.41 989.854 745.253C989.854 746.095 989.71 746.879 989.422 747.605C989.129 748.33 988.718 748.959 988.19 749.493C987.657 750.026 987.017 750.445 986.27 750.749C985.523 751.053 984.697 751.205 983.79 751.205C982.883 751.205 982.059 751.05 981.318 750.741C980.571 750.437 979.934 750.018 979.406 749.485C978.878 748.951 978.47 748.322 978.182 747.597C977.889 746.871 977.742 746.09 977.742 745.253ZM980.51 745.253C980.51 745.829 980.585 746.346 980.734 746.805C980.883 747.269 981.099 747.661 981.382 747.981C981.659 748.301 982.001 748.546 982.406 748.717C982.811 748.887 983.273 748.973 983.79 748.973C984.313 748.973 984.779 748.887 985.19 748.717C985.595 748.546 985.939 748.301 986.222 747.981C986.499 747.661 986.713 747.269 986.862 746.805C987.011 746.346 987.086 745.829 987.086 745.253C987.086 744.671 987.011 744.149 986.862 743.685C986.713 743.226 986.499 742.837 986.222 742.517C985.939 742.197 985.595 741.951 985.19 741.781C984.779 741.615 984.313 741.533 983.79 741.533C983.273 741.533 982.811 741.615 982.406 741.781C982.001 741.951 981.659 742.197 981.382 742.517C981.099 742.837 980.883 743.226 980.734 743.685C980.585 744.149 980.51 744.671 980.51 745.253ZM969.799 745.597C969.431 745.597 969.119 745.642 968.863 745.733C968.601 745.829 968.388 745.959 968.223 746.125C968.057 746.29 967.937 746.482 967.863 746.701C967.788 746.925 967.751 747.165 967.751 747.421C967.751 747.933 967.919 748.333 968.255 748.621C968.585 748.909 969.1 749.053 969.799 749.053H970.887V745.597H969.799ZM964.055 739.421H966.503C966.956 739.421 967.281 739.591 967.479 739.933L969.415 743.317C969.505 743.461 969.607 743.565 969.719 743.629C969.831 743.698 969.991 743.733 970.199 743.733H970.887V739.421H973.591V751.077H969.799C968.956 751.077 968.239 750.989 967.647 750.813C967.049 750.642 966.564 750.402 966.191 750.093C965.812 749.783 965.537 749.418 965.367 748.997C965.196 748.575 965.111 748.117 965.111 747.621C965.111 747.242 965.161 746.885 965.263 746.549C965.364 746.213 965.513 745.901 965.711 745.613C965.908 745.33 966.153 745.077 966.447 744.853C966.735 744.629 967.068 744.445 967.447 744.301C967.271 744.21 967.105 744.095 966.951 743.957C966.796 743.823 966.657 743.663 966.535 743.477L964.055 739.421ZM952.373 748.933H955.653V739.421H958.357V748.933H961.637V751.077H952.373V748.933ZM945.719 748.997V746.277H942.055V744.277H945.719V741.501H940.935V739.421H948.439V751.077H940.935V748.997H945.719ZM940.879 754.357L943.463 752.077C943.527 752.018 943.589 751.973 943.647 751.941C943.706 751.909 943.767 751.885 943.831 751.869C943.895 751.853 943.965 751.842 944.039 751.837C944.109 751.831 944.189 751.829 944.279 751.829H946.087L944.575 753.989C944.511 754.074 944.45 754.141 944.391 754.189C944.327 754.242 944.261 754.279 944.191 754.301C944.117 754.327 944.034 754.343 943.943 754.349C943.847 754.354 943.738 754.357 943.615 754.357H940.879Z" fill="#FFF6F6"/>
                <path d="M1168.55 748.997V746.045H1164.56V743.957H1168.55V739.421H1171.27V751.077H1163.76V748.997H1168.55ZM1148.31 745.253C1148.31 744.41 1148.46 743.626 1148.75 742.901C1149.04 742.175 1149.45 741.543 1149.98 741.005C1150.51 740.471 1151.14 740.053 1151.89 739.749C1152.63 739.445 1153.45 739.293 1154.36 739.293C1155.27 739.293 1156.09 739.445 1156.84 739.749C1157.59 740.053 1158.23 740.471 1158.76 741.005C1159.29 741.543 1159.7 742.175 1159.99 742.901C1160.28 743.626 1160.43 744.41 1160.43 745.253C1160.43 746.095 1160.28 746.879 1159.99 747.605C1159.7 748.33 1159.29 748.959 1158.76 749.493C1158.23 750.026 1157.59 750.445 1156.84 750.749C1156.09 751.053 1155.27 751.205 1154.36 751.205C1153.45 751.205 1152.63 751.05 1151.89 750.741C1151.14 750.437 1150.51 750.018 1149.98 749.485C1149.45 748.951 1149.04 748.322 1148.75 747.597C1148.46 746.871 1148.31 746.09 1148.31 745.253ZM1151.08 745.253C1151.08 745.829 1151.16 746.346 1151.31 746.805C1151.45 747.269 1151.67 747.661 1151.95 747.981C1152.23 748.301 1152.57 748.546 1152.98 748.717C1153.38 748.887 1153.84 748.973 1154.36 748.973C1154.88 748.973 1155.35 748.887 1155.76 748.717C1156.17 748.546 1156.51 748.301 1156.79 747.981C1157.07 747.661 1157.28 747.269 1157.43 746.805C1157.58 746.346 1157.66 745.829 1157.66 745.253C1157.66 744.671 1157.58 744.149 1157.43 743.685C1157.28 743.226 1157.07 742.837 1156.79 742.517C1156.51 742.197 1156.17 741.951 1155.76 741.781C1155.35 741.615 1154.88 741.533 1154.36 741.533C1153.84 741.533 1153.38 741.615 1152.98 741.781C1152.57 741.951 1152.23 742.197 1151.95 742.517C1151.67 742.837 1151.45 743.226 1151.31 743.685C1151.16 744.149 1151.08 744.671 1151.08 745.253ZM1140.37 745.597C1140 745.597 1139.69 745.642 1139.43 745.733C1139.17 745.829 1138.96 745.959 1138.79 746.125C1138.63 746.29 1138.51 746.482 1138.43 746.701C1138.36 746.925 1138.32 747.165 1138.32 747.421C1138.32 747.933 1138.49 748.333 1138.83 748.621C1139.16 748.909 1139.67 749.053 1140.37 749.053H1141.46V745.597H1140.37ZM1134.63 739.421H1137.07C1137.53 739.421 1137.85 739.591 1138.05 739.933L1139.99 743.317C1140.08 743.461 1140.18 743.565 1140.29 743.629C1140.4 743.698 1140.56 743.733 1140.77 743.733H1141.46V739.421H1144.16V751.077H1140.37C1139.53 751.077 1138.81 750.989 1138.22 750.813C1137.62 750.642 1137.14 750.402 1136.76 750.093C1136.38 749.783 1136.11 749.418 1135.94 748.997C1135.77 748.575 1135.68 748.117 1135.68 747.621C1135.68 747.242 1135.73 746.885 1135.83 746.549C1135.94 746.213 1136.08 745.901 1136.28 745.613C1136.48 745.33 1136.72 745.077 1137.02 744.853C1137.31 744.629 1137.64 744.445 1138.02 744.301C1137.84 744.21 1137.68 744.095 1137.52 743.957C1137.37 743.823 1137.23 743.663 1137.11 743.477L1134.63 739.421ZM1122.94 748.933H1126.22V739.421H1128.93V748.933H1132.21V751.077H1122.94V748.933ZM1116.29 748.997V746.277H1112.63V744.277H1116.29V741.501H1111.51V739.421H1119.01V751.077H1111.51V748.997H1116.29ZM1111.45 754.357L1114.03 752.077C1114.1 752.018 1114.16 751.973 1114.22 751.941C1114.28 751.909 1114.34 751.885 1114.4 751.869C1114.47 751.853 1114.54 751.842 1114.61 751.837C1114.68 751.831 1114.76 751.829 1114.85 751.829H1116.66L1115.15 753.989C1115.08 754.074 1115.02 754.141 1114.96 754.189C1114.9 754.242 1114.83 754.279 1114.76 754.301C1114.69 754.327 1114.61 754.343 1114.51 754.349C1114.42 754.354 1114.31 754.357 1114.19 754.357H1111.45Z" fill="#FFF6F6"/>
                <path d="M1339.12 748.997V746.045H1335.13V743.957H1339.12V739.421H1341.84V751.077H1334.33V748.997H1339.12ZM1318.88 745.253C1318.88 744.41 1319.03 743.626 1319.32 742.901C1319.61 742.175 1320.02 741.543 1320.55 741.005C1321.08 740.471 1321.71 740.053 1322.46 739.749C1323.2 739.445 1324.03 739.293 1324.93 739.293C1325.84 739.293 1326.67 739.445 1327.41 739.749C1328.16 740.053 1328.8 740.471 1329.33 741.005C1329.86 741.543 1330.27 742.175 1330.56 742.901C1330.85 743.626 1331 744.41 1331 745.253C1331 746.095 1330.85 746.879 1330.56 747.605C1330.27 748.33 1329.86 748.959 1329.33 749.493C1328.8 750.026 1328.16 750.445 1327.41 750.749C1326.67 751.053 1325.84 751.205 1324.93 751.205C1324.03 751.205 1323.2 751.05 1322.46 750.741C1321.71 750.437 1321.08 750.018 1320.55 749.485C1320.02 748.951 1319.61 748.322 1319.32 747.597C1319.03 746.871 1318.88 746.09 1318.88 745.253ZM1321.65 745.253C1321.65 745.829 1321.73 746.346 1321.88 746.805C1322.03 747.269 1322.24 747.661 1322.52 747.981C1322.8 748.301 1323.14 748.546 1323.55 748.717C1323.95 748.887 1324.42 748.973 1324.93 748.973C1325.46 748.973 1325.92 748.887 1326.33 748.717C1326.74 748.546 1327.08 748.301 1327.36 747.981C1327.64 747.661 1327.86 747.269 1328 746.805C1328.15 746.346 1328.23 745.829 1328.23 745.253C1328.23 744.671 1328.15 744.149 1328 743.685C1327.86 743.226 1327.64 742.837 1327.36 742.517C1327.08 742.197 1326.74 741.951 1326.33 741.781C1325.92 741.615 1325.46 741.533 1324.93 741.533C1324.42 741.533 1323.95 741.615 1323.55 741.781C1323.14 741.951 1322.8 742.197 1322.52 742.517C1322.24 742.837 1322.03 743.226 1321.88 743.685C1321.73 744.149 1321.65 744.671 1321.65 745.253ZM1310.94 745.597C1310.57 745.597 1310.26 745.642 1310.01 745.733C1309.74 745.829 1309.53 745.959 1309.37 746.125C1309.2 746.29 1309.08 746.482 1309.01 746.701C1308.93 746.925 1308.89 747.165 1308.89 747.421C1308.89 747.933 1309.06 748.333 1309.4 748.621C1309.73 748.909 1310.24 749.053 1310.94 749.053H1312.03V745.597H1310.94ZM1305.2 739.421H1307.65C1308.1 739.421 1308.42 739.591 1308.62 739.933L1310.56 743.317C1310.65 743.461 1310.75 743.565 1310.86 743.629C1310.97 743.698 1311.13 743.733 1311.34 743.733H1312.03V739.421H1314.73V751.077H1310.94C1310.1 751.077 1309.38 750.989 1308.79 750.813C1308.19 750.642 1307.71 750.402 1307.33 750.093C1306.95 749.783 1306.68 749.418 1306.51 748.997C1306.34 748.575 1306.25 748.117 1306.25 747.621C1306.25 747.242 1306.3 746.885 1306.41 746.549C1306.51 746.213 1306.66 745.901 1306.85 745.613C1307.05 745.33 1307.3 745.077 1307.59 744.853C1307.88 744.629 1308.21 744.445 1308.59 744.301C1308.41 744.21 1308.25 744.095 1308.09 743.957C1307.94 743.823 1307.8 743.663 1307.68 743.477L1305.2 739.421ZM1293.52 748.933H1296.8V739.421H1299.5V748.933H1302.78V751.077H1293.52V748.933ZM1286.86 748.997V746.277H1283.2V744.277H1286.86V741.501H1282.08V739.421H1289.58V751.077H1282.08V748.997H1286.86ZM1282.02 754.357L1284.61 752.077C1284.67 752.018 1284.73 751.973 1284.79 751.941C1284.85 751.909 1284.91 751.885 1284.97 751.869C1285.04 751.853 1285.11 751.842 1285.18 751.837C1285.25 751.831 1285.33 751.829 1285.42 751.829H1287.23L1285.72 753.989C1285.65 754.074 1285.59 754.141 1285.53 754.189C1285.47 754.242 1285.4 754.279 1285.33 754.301C1285.26 754.327 1285.18 754.343 1285.09 754.349C1284.99 754.354 1284.88 754.357 1284.76 754.357H1282.02Z" fill="#FFF6F6"/>
                <path d="M1509.69 748.997V746.045H1505.71V743.957H1509.69V739.421H1512.41V751.077H1504.91V748.997H1509.69ZM1489.46 745.253C1489.46 744.41 1489.6 743.626 1489.9 742.901C1490.18 742.175 1490.59 741.543 1491.12 741.005C1491.65 740.471 1492.29 740.053 1493.03 739.749C1493.77 739.445 1494.6 739.293 1495.5 739.293C1496.41 739.293 1497.24 739.445 1497.98 739.749C1498.73 740.053 1499.37 740.471 1499.9 741.005C1500.43 741.543 1500.84 742.175 1501.14 742.901C1501.42 743.626 1501.57 744.41 1501.57 745.253C1501.57 746.095 1501.42 746.879 1501.14 747.605C1500.84 748.33 1500.43 748.959 1499.9 749.493C1499.37 750.026 1498.73 750.445 1497.98 750.749C1497.24 751.053 1496.41 751.205 1495.5 751.205C1494.6 751.205 1493.77 751.05 1493.03 750.741C1492.29 750.437 1491.65 750.018 1491.12 749.485C1490.59 748.951 1490.18 748.322 1489.9 747.597C1489.6 746.871 1489.46 746.09 1489.46 745.253ZM1492.22 745.253C1492.22 745.829 1492.3 746.346 1492.45 746.805C1492.6 747.269 1492.81 747.661 1493.1 747.981C1493.37 748.301 1493.71 748.546 1494.12 748.717C1494.53 748.887 1494.99 748.973 1495.5 748.973C1496.03 748.973 1496.49 748.887 1496.9 748.717C1497.31 748.546 1497.65 748.301 1497.94 747.981C1498.21 747.661 1498.43 747.269 1498.58 746.805C1498.73 746.346 1498.8 745.829 1498.8 745.253C1498.8 744.671 1498.73 744.149 1498.58 743.685C1498.43 743.226 1498.21 742.837 1497.94 742.517C1497.65 742.197 1497.31 741.951 1496.9 741.781C1496.49 741.615 1496.03 741.533 1495.5 741.533C1494.99 741.533 1494.53 741.615 1494.12 741.781C1493.71 741.951 1493.37 742.197 1493.1 742.517C1492.81 742.837 1492.6 743.226 1492.45 743.685C1492.3 744.149 1492.22 744.671 1492.22 745.253ZM1481.51 745.597C1481.14 745.597 1480.83 745.642 1480.58 745.733C1480.32 745.829 1480.1 745.959 1479.94 746.125C1479.77 746.29 1479.65 746.482 1479.58 746.701C1479.5 746.925 1479.46 747.165 1479.46 747.421C1479.46 747.933 1479.63 748.333 1479.97 748.621C1480.3 748.909 1480.81 749.053 1481.51 749.053H1482.6V745.597H1481.51ZM1475.77 739.421H1478.22C1478.67 739.421 1479 739.591 1479.19 739.933L1481.13 743.317C1481.22 743.461 1481.32 743.565 1481.43 743.629C1481.54 743.698 1481.7 743.733 1481.91 743.733H1482.6V739.421H1485.3V751.077H1481.51C1480.67 751.077 1479.95 750.989 1479.36 750.813C1478.76 750.642 1478.28 750.402 1477.9 750.093C1477.53 749.783 1477.25 749.418 1477.08 748.997C1476.91 748.575 1476.82 748.117 1476.82 747.621C1476.82 747.242 1476.88 746.885 1476.98 746.549C1477.08 746.213 1477.23 745.901 1477.42 745.613C1477.62 745.33 1477.87 745.077 1478.16 744.853C1478.45 744.629 1478.78 744.445 1479.16 744.301C1478.98 744.21 1478.82 744.095 1478.66 743.957C1478.51 743.823 1478.37 743.663 1478.25 743.477L1475.77 739.421ZM1464.09 748.933H1467.37V739.421H1470.07V748.933H1473.35V751.077H1464.09V748.933ZM1457.43 748.997V746.277H1453.77V744.277H1457.43V741.501H1452.65V739.421H1460.15V751.077H1452.65V748.997H1457.43ZM1452.59 754.357L1455.18 752.077C1455.24 752.018 1455.3 751.973 1455.36 751.941C1455.42 751.909 1455.48 751.885 1455.55 751.869C1455.61 751.853 1455.68 751.842 1455.75 751.837C1455.82 751.831 1455.9 751.829 1455.99 751.829H1457.8L1456.29 753.989C1456.23 754.074 1456.16 754.141 1456.11 754.189C1456.04 754.242 1455.98 754.279 1455.91 754.301C1455.83 754.327 1455.75 754.343 1455.66 754.349C1455.56 754.354 1455.45 754.357 1455.33 754.357H1452.59Z" fill="#FFF6F6"/>
                <path d="M1577.62 630.418H1574.66V634.402H1572.58V630.418H1568.04V627.698H1579.7V635.202H1577.62V630.418ZM1573.87 650.651C1573.03 650.651 1572.25 650.504 1571.52 650.211C1570.79 649.923 1570.16 649.515 1569.62 648.987C1569.09 648.459 1568.67 647.821 1568.37 647.075C1568.06 646.333 1567.91 645.509 1567.91 644.603C1567.91 643.696 1568.06 642.869 1568.37 642.123C1568.67 641.376 1569.09 640.736 1569.62 640.203C1570.16 639.675 1570.79 639.264 1571.52 638.971C1572.25 638.683 1573.03 638.539 1573.87 638.539C1574.71 638.539 1575.5 638.683 1576.22 638.971C1576.95 639.264 1577.58 639.675 1578.11 640.203C1578.65 640.736 1579.06 641.376 1579.37 642.123C1579.67 642.869 1579.82 643.696 1579.82 644.603C1579.82 645.509 1579.67 646.333 1579.36 647.075C1579.06 647.821 1578.64 648.459 1578.1 648.987C1577.57 649.515 1576.94 649.923 1576.22 650.211C1575.49 650.504 1574.71 650.651 1573.87 650.651ZM1573.87 647.883C1574.45 647.883 1574.97 647.808 1575.42 647.659C1575.89 647.509 1576.28 647.293 1576.6 647.011C1576.92 646.733 1577.17 646.392 1577.34 645.987C1577.51 645.581 1577.59 645.12 1577.59 644.603C1577.59 644.08 1577.51 643.613 1577.34 643.203C1577.17 642.797 1576.92 642.453 1576.6 642.171C1576.28 641.893 1575.89 641.68 1575.42 641.531C1574.97 641.381 1574.45 641.307 1573.87 641.307C1573.29 641.307 1572.77 641.381 1572.3 641.531C1571.85 641.68 1571.46 641.893 1571.14 642.171C1570.82 642.453 1570.57 642.797 1570.4 643.203C1570.23 643.613 1570.15 644.08 1570.15 644.603C1570.15 645.12 1570.23 645.581 1570.4 645.987C1570.57 646.392 1570.82 646.733 1571.14 647.011C1571.46 647.293 1571.85 647.509 1572.3 647.659C1572.77 647.808 1573.29 647.883 1573.87 647.883ZM1574.22 658.594C1574.22 658.962 1574.26 659.274 1574.35 659.53C1574.45 659.791 1574.58 660.005 1574.74 660.17C1574.91 660.335 1575.1 660.455 1575.32 660.53C1575.54 660.605 1575.78 660.642 1576.04 660.642C1576.55 660.642 1576.95 660.474 1577.24 660.138C1577.53 659.807 1577.67 659.293 1577.67 658.594V657.506H1574.22V658.594ZM1568.04 664.338V661.89C1568.04 661.437 1568.21 661.111 1568.55 660.914L1571.94 658.978C1572.08 658.887 1572.18 658.786 1572.25 658.674C1572.32 658.562 1572.35 658.402 1572.35 658.194V657.506H1568.04V654.802H1579.7V658.594C1579.7 659.437 1579.61 660.154 1579.43 660.746C1579.26 661.343 1579.02 661.829 1578.71 662.202C1578.4 662.581 1578.04 662.855 1577.62 663.026C1577.19 663.197 1576.74 663.282 1576.24 663.282C1575.86 663.282 1575.5 663.231 1575.17 663.13C1574.83 663.029 1574.52 662.879 1574.23 662.682C1573.95 662.485 1573.7 662.239 1573.47 661.946C1573.25 661.658 1573.06 661.325 1572.92 660.946C1572.83 661.122 1572.71 661.287 1572.58 661.442C1572.44 661.597 1572.28 661.735 1572.1 661.858L1568.04 664.338ZM1577.55 676.019V672.739H1568.04V670.035H1577.55V666.755H1579.7V676.019H1577.55ZM1577.62 682.673H1574.9V686.337H1572.9V682.673H1570.12V687.457H1568.04V679.953H1579.7V687.457H1577.62V682.673ZM1582.98 687.513L1580.7 684.929C1580.64 684.865 1580.59 684.804 1580.56 684.745C1580.53 684.687 1580.5 684.625 1580.49 684.561C1580.47 684.497 1580.46 684.428 1580.46 684.353C1580.45 684.284 1580.45 684.204 1580.45 684.113V682.305L1582.61 683.817C1582.69 683.881 1582.76 683.943 1582.81 684.001C1582.86 684.065 1582.9 684.132 1582.92 684.201C1582.95 684.276 1582.96 684.359 1582.97 684.449C1582.97 684.545 1582.98 684.655 1582.98 684.777V687.513Z" fill="#FFF6F6"/>
                <path d="M1577.62 440.931H1574.66V444.915H1572.58V440.931H1568.04V438.211H1579.7V445.715H1577.62V440.931ZM1573.87 461.164C1573.03 461.164 1572.25 461.017 1571.52 460.724C1570.79 460.436 1570.16 460.028 1569.62 459.5C1569.09 458.972 1568.67 458.335 1568.37 457.588C1568.06 456.847 1567.91 456.023 1567.91 455.116C1567.91 454.209 1568.06 453.383 1568.37 452.636C1568.67 451.889 1569.09 451.249 1569.62 450.716C1570.16 450.188 1570.79 449.777 1571.52 449.484C1572.25 449.196 1573.03 449.052 1573.87 449.052C1574.71 449.052 1575.5 449.196 1576.22 449.484C1576.95 449.777 1577.58 450.188 1578.11 450.716C1578.65 451.249 1579.06 451.889 1579.37 452.636C1579.67 453.383 1579.82 454.209 1579.82 455.116C1579.82 456.023 1579.67 456.847 1579.36 457.588C1579.06 458.335 1578.64 458.972 1578.1 459.5C1577.57 460.028 1576.94 460.436 1576.22 460.724C1575.49 461.017 1574.71 461.164 1573.87 461.164ZM1573.87 458.396C1574.45 458.396 1574.97 458.321 1575.42 458.172C1575.89 458.023 1576.28 457.807 1576.6 457.524C1576.92 457.247 1577.17 456.905 1577.34 456.5C1577.51 456.095 1577.59 455.633 1577.59 455.116C1577.59 454.593 1577.51 454.127 1577.34 453.716C1577.17 453.311 1576.92 452.967 1576.6 452.684C1576.28 452.407 1575.89 452.193 1575.42 452.044C1574.97 451.895 1574.45 451.82 1573.87 451.82C1573.29 451.82 1572.77 451.895 1572.3 452.044C1571.85 452.193 1571.46 452.407 1571.14 452.684C1570.82 452.967 1570.57 453.311 1570.4 453.716C1570.23 454.127 1570.15 454.593 1570.15 455.116C1570.15 455.633 1570.23 456.095 1570.4 456.5C1570.57 456.905 1570.82 457.247 1571.14 457.524C1571.46 457.807 1571.85 458.023 1572.3 458.172C1572.77 458.321 1573.29 458.396 1573.87 458.396ZM1574.22 469.107C1574.22 469.475 1574.26 469.787 1574.35 470.043C1574.45 470.304 1574.58 470.518 1574.74 470.683C1574.91 470.848 1575.1 470.968 1575.32 471.043C1575.54 471.118 1575.78 471.155 1576.04 471.155C1576.55 471.155 1576.95 470.987 1577.24 470.651C1577.53 470.32 1577.67 469.806 1577.67 469.107V468.019H1574.22V469.107ZM1568.04 474.851V472.403C1568.04 471.95 1568.21 471.624 1568.55 471.427L1571.94 469.491C1572.08 469.4 1572.18 469.299 1572.25 469.187C1572.32 469.075 1572.35 468.915 1572.35 468.707V468.019H1568.04V465.315H1579.7V469.107C1579.7 469.95 1579.61 470.667 1579.43 471.259C1579.26 471.856 1579.02 472.342 1578.71 472.715C1578.4 473.094 1578.04 473.368 1577.62 473.539C1577.19 473.71 1576.74 473.795 1576.24 473.795C1575.86 473.795 1575.5 473.744 1575.17 473.643C1574.83 473.542 1574.52 473.392 1574.23 473.195C1573.95 472.998 1573.7 472.752 1573.47 472.459C1573.25 472.171 1573.06 471.838 1572.92 471.459C1572.83 471.635 1572.71 471.8 1572.58 471.955C1572.44 472.11 1572.28 472.248 1572.1 472.371L1568.04 474.851ZM1577.55 486.532V483.252H1568.04V480.548H1577.55V477.268H1579.7V486.532H1577.55ZM1577.62 493.186H1574.9V496.85H1572.9V493.186H1570.12V497.97H1568.04V490.466H1579.7V497.97H1577.62V493.186ZM1582.98 498.026L1580.7 495.442C1580.64 495.378 1580.59 495.317 1580.56 495.258C1580.53 495.2 1580.5 495.138 1580.49 495.074C1580.47 495.01 1580.46 494.941 1580.46 494.866C1580.45 494.797 1580.45 494.717 1580.45 494.626V492.818L1582.61 494.33C1582.69 494.394 1582.76 494.456 1582.81 494.514C1582.86 494.578 1582.9 494.645 1582.92 494.714C1582.95 494.789 1582.96 494.872 1582.97 494.962C1582.97 495.058 1582.98 495.168 1582.98 495.29V498.026Z" fill="#FFF6F6"/>
                <path d="M1577.62 250.181H1574.66V254.165H1572.58V250.181H1568.04V247.461H1579.7V254.965H1577.62V250.181ZM1573.87 270.414C1573.03 270.414 1572.25 270.267 1571.52 269.974C1570.79 269.686 1570.16 269.278 1569.62 268.75C1569.09 268.222 1568.67 267.585 1568.37 266.838C1568.06 266.097 1567.91 265.273 1567.91 264.366C1567.91 263.459 1568.06 262.633 1568.37 261.886C1568.67 261.139 1569.09 260.499 1569.62 259.966C1570.16 259.438 1570.79 259.027 1571.52 258.734C1572.25 258.446 1573.03 258.302 1573.87 258.302C1574.71 258.302 1575.5 258.446 1576.22 258.734C1576.95 259.027 1577.58 259.438 1578.11 259.966C1578.65 260.499 1579.06 261.139 1579.37 261.886C1579.67 262.633 1579.82 263.459 1579.82 264.366C1579.82 265.273 1579.67 266.097 1579.36 266.838C1579.06 267.585 1578.64 268.222 1578.1 268.75C1577.57 269.278 1576.94 269.686 1576.22 269.974C1575.49 270.267 1574.71 270.414 1573.87 270.414ZM1573.87 267.646C1574.45 267.646 1574.97 267.571 1575.42 267.422C1575.89 267.273 1576.28 267.057 1576.6 266.774C1576.92 266.497 1577.17 266.155 1577.34 265.75C1577.51 265.345 1577.59 264.883 1577.59 264.366C1577.59 263.843 1577.51 263.377 1577.34 262.966C1577.17 262.561 1576.92 262.217 1576.6 261.934C1576.28 261.657 1575.89 261.443 1575.42 261.294C1574.97 261.145 1574.45 261.07 1573.87 261.07C1573.29 261.07 1572.77 261.145 1572.3 261.294C1571.85 261.443 1571.46 261.657 1571.14 261.934C1570.82 262.217 1570.57 262.561 1570.4 262.966C1570.23 263.377 1570.15 263.843 1570.15 264.366C1570.15 264.883 1570.23 265.345 1570.4 265.75C1570.57 266.155 1570.82 266.497 1571.14 266.774C1571.46 267.057 1571.85 267.273 1572.3 267.422C1572.77 267.571 1573.29 267.646 1573.87 267.646ZM1574.22 278.357C1574.22 278.725 1574.26 279.037 1574.35 279.293C1574.45 279.554 1574.58 279.768 1574.74 279.933C1574.91 280.098 1575.1 280.218 1575.32 280.293C1575.54 280.368 1575.78 280.405 1576.04 280.405C1576.55 280.405 1576.95 280.237 1577.24 279.901C1577.53 279.57 1577.67 279.056 1577.67 278.357V277.269H1574.22V278.357ZM1568.04 284.101V281.653C1568.04 281.2 1568.21 280.874 1568.55 280.677L1571.94 278.741C1572.08 278.65 1572.18 278.549 1572.25 278.437C1572.32 278.325 1572.35 278.165 1572.35 277.957V277.269H1568.04V274.565H1579.7V278.357C1579.7 279.2 1579.61 279.917 1579.43 280.509C1579.26 281.106 1579.02 281.592 1578.71 281.965C1578.4 282.344 1578.04 282.618 1577.62 282.789C1577.19 282.96 1576.74 283.045 1576.24 283.045C1575.86 283.045 1575.5 282.994 1575.17 282.893C1574.83 282.792 1574.52 282.642 1574.23 282.445C1573.95 282.248 1573.7 282.002 1573.47 281.709C1573.25 281.421 1573.06 281.088 1572.92 280.709C1572.83 280.885 1572.71 281.05 1572.58 281.205C1572.44 281.36 1572.28 281.498 1572.1 281.621L1568.04 284.101ZM1577.55 295.782V292.502H1568.04V289.798H1577.55V286.518H1579.7V295.782H1577.55ZM1577.62 302.436H1574.9V306.1H1572.9V302.436H1570.12V307.22H1568.04V299.716H1579.7V307.22H1577.62V302.436ZM1582.98 307.276L1580.7 304.692C1580.64 304.628 1580.59 304.567 1580.56 304.508C1580.53 304.45 1580.5 304.388 1580.49 304.324C1580.47 304.26 1580.46 304.191 1580.46 304.116C1580.45 304.047 1580.45 303.967 1580.45 303.876V302.068L1582.61 303.58C1582.69 303.644 1582.76 303.706 1582.81 303.764C1582.86 303.828 1582.9 303.895 1582.92 303.964C1582.95 304.039 1582.96 304.122 1582.97 304.212C1582.97 304.308 1582.98 304.418 1582.98 304.54V307.276Z" fill="#FFF6F6"/>
                <path d="M1577.62 60.694H1574.66V64.678H1572.58V60.694H1568.04V57.974H1579.7V65.478H1577.62V60.694ZM1573.87 80.9271C1573.03 80.9271 1572.25 80.7805 1571.52 80.4871C1570.79 80.1991 1570.16 79.7911 1569.62 79.2631C1569.09 78.7351 1568.67 78.0978 1568.37 77.3511C1568.06 76.6098 1567.91 75.7858 1567.91 74.8791C1567.91 73.9725 1568.06 73.1458 1568.37 72.3991C1568.67 71.6525 1569.09 71.0125 1569.62 70.4791C1570.16 69.9511 1570.79 69.5405 1571.52 69.2471C1572.25 68.9591 1573.03 68.8151 1573.87 68.8151C1574.71 68.8151 1575.5 68.9591 1576.22 69.2471C1576.95 69.5405 1577.58 69.9511 1578.11 70.4791C1578.65 71.0125 1579.06 71.6525 1579.37 72.3991C1579.67 73.1458 1579.82 73.9725 1579.82 74.8791C1579.82 75.7858 1579.67 76.6098 1579.36 77.3511C1579.06 78.0978 1578.64 78.7351 1578.1 79.2631C1577.57 79.7911 1576.94 80.1991 1576.22 80.4871C1575.49 80.7805 1574.71 80.9271 1573.87 80.9271ZM1573.87 78.1591C1574.45 78.1591 1574.97 78.0845 1575.42 77.9351C1575.89 77.7858 1576.28 77.5698 1576.6 77.2871C1576.92 77.0098 1577.17 76.6685 1577.34 76.2631C1577.51 75.8578 1577.59 75.3965 1577.59 74.8791C1577.59 74.3565 1577.51 73.8898 1577.34 73.4791C1577.17 73.0738 1576.92 72.7298 1576.6 72.4471C1576.28 72.1698 1575.89 71.9565 1575.42 71.8071C1574.97 71.6578 1574.45 71.5831 1573.87 71.5831C1573.29 71.5831 1572.77 71.6578 1572.3 71.8071C1571.85 71.9565 1571.46 72.1698 1571.14 72.4471C1570.82 72.7298 1570.57 73.0738 1570.4 73.4791C1570.23 73.8898 1570.15 74.3565 1570.15 74.8791C1570.15 75.3965 1570.23 75.8578 1570.4 76.2631C1570.57 76.6685 1570.82 77.0098 1571.14 77.2871C1571.46 77.5698 1571.85 77.7858 1572.3 77.9351C1572.77 78.0845 1573.29 78.1591 1573.87 78.1591ZM1574.22 88.8704C1574.22 89.2384 1574.26 89.5504 1574.35 89.8064C1574.45 90.0677 1574.58 90.281 1574.74 90.4464C1574.91 90.6117 1575.1 90.7317 1575.32 90.8064C1575.54 90.881 1575.78 90.9184 1576.04 90.9184C1576.55 90.9184 1576.95 90.7504 1577.24 90.4144C1577.53 90.0837 1577.67 89.569 1577.67 88.8704V87.7824H1574.22V88.8704ZM1568.04 94.6144V92.1664C1568.04 91.713 1568.21 91.3877 1568.55 91.1904L1571.94 89.2544C1572.08 89.1637 1572.18 89.0624 1572.25 88.9504C1572.32 88.8384 1572.35 88.6784 1572.35 88.4704V87.7824H1568.04V85.0784H1579.7V88.8704C1579.7 89.713 1579.61 90.4304 1579.43 91.0224C1579.26 91.6197 1579.02 92.105 1578.71 92.4784C1578.4 92.857 1578.04 93.1317 1577.62 93.3024C1577.19 93.473 1576.74 93.5584 1576.24 93.5584C1575.86 93.5584 1575.5 93.5077 1575.17 93.4064C1574.83 93.305 1574.52 93.1557 1574.23 92.9584C1573.95 92.761 1573.7 92.5157 1573.47 92.2224C1573.25 91.9344 1573.06 91.601 1572.92 91.2224C1572.83 91.3984 1572.71 91.5637 1572.58 91.7184C1572.44 91.873 1572.28 92.0117 1572.1 92.1344L1568.04 94.6144ZM1577.55 106.296V103.016H1568.04V100.312H1577.55V97.0316H1579.7V106.296H1577.55ZM1577.62 112.95H1574.9V116.614H1572.9V112.95H1570.12V117.734H1568.04V110.23H1579.7V117.734H1577.62V112.95ZM1582.98 117.79L1580.7 115.206C1580.64 115.142 1580.59 115.08 1580.56 115.022C1580.53 114.963 1580.5 114.902 1580.49 114.838C1580.47 114.774 1580.46 114.704 1580.46 114.63C1580.45 114.56 1580.45 114.48 1580.45 114.39V112.582L1582.61 114.094C1582.69 114.158 1582.76 114.219 1582.81 114.278C1582.86 114.342 1582.9 114.408 1582.92 114.478C1582.95 114.552 1582.96 114.635 1582.97 114.726C1582.97 114.822 1582.98 114.931 1582.98 115.054V117.79Z" fill="#FFF6F6"/>
</svg> 