<svg width="139" height="82" viewBox="0 0 139 82" fill="none" xmlns="http://www.w3.org/2000/svg">
<g filter="url(#filter0_f_101_5)">
<path d="M40 15.7641L55.061 16.3388L76.8613 55.5802L68.4637 67L40 15.7641Z" fill="#817878"/>
<path d="M94.5069 17.0945L84.0886 34.0578L74.5744 16.5737L94.5069 17.0945Z" fill="#817878"/>
</g>
<path d="M15 30.54L9.16 45H6.73L0.89 30.54H3.05C3.28333 30.54 3.47333 30.5967 3.62 30.71C3.76667 30.8233 3.87667 30.97 3.95 31.15L7.36 39.97C7.47333 40.2567 7.58 40.5733 7.68 40.92C7.78667 41.26 7.88667 41.6167 7.98 41.99C8.06 41.6167 8.14667 41.26 8.24 40.92C8.33333 40.5733 8.43667 40.2567 8.55 39.97L11.94 31.15C11.9933 30.9967 12.0967 30.8567 12.25 30.73C12.41 30.6033 12.6033 30.54 12.83 30.54H15ZM26.1844 39.54L24.4244 34.73C24.3377 34.5167 24.2477 34.2633 24.1544 33.97C24.061 33.6767 23.9677 33.36 23.8744 33.02C23.7877 33.36 23.6977 33.68 23.6044 33.98C23.511 34.2733 23.421 34.53 23.3344 34.75L21.5844 39.54H26.1844ZM30.9344 45H28.8544C28.621 45 28.431 44.9433 28.2844 44.83C28.1377 44.71 28.0277 44.5633 27.9544 44.39L26.8744 41.44H20.8844L19.8044 44.39C19.751 44.5433 19.6477 44.6833 19.4944 44.81C19.341 44.9367 19.151 45 18.9244 45H16.8244L22.5144 30.54H25.2544L30.9344 45ZM43.3311 33.17C43.2511 33.31 43.1644 33.4133 43.0711 33.48C42.9844 33.54 42.8744 33.57 42.7411 33.57C42.6011 33.57 42.4478 33.52 42.2811 33.42C42.1211 33.3133 41.9278 33.1967 41.7011 33.07C41.4744 32.9433 41.2078 32.83 40.9011 32.73C40.6011 32.6233 40.2444 32.57 39.8311 32.57C39.4578 32.57 39.1311 32.6167 38.8511 32.71C38.5711 32.7967 38.3344 32.92 38.1411 33.08C37.9544 33.24 37.8144 33.4333 37.7211 33.66C37.6278 33.88 37.5811 34.1233 37.5811 34.39C37.5811 34.73 37.6744 35.0133 37.8611 35.24C38.0544 35.4667 38.3078 35.66 38.6211 35.82C38.9344 35.98 39.2911 36.1233 39.6911 36.25C40.0911 36.3767 40.5011 36.5133 40.9211 36.66C41.3411 36.8 41.7511 36.9667 42.1511 37.16C42.5511 37.3467 42.9078 37.5867 43.2211 37.88C43.5344 38.1667 43.7844 38.52 43.9711 38.94C44.1644 39.36 44.2611 39.87 44.2611 40.47C44.2611 41.1233 44.1478 41.7367 43.9211 42.31C43.7011 42.8767 43.3744 43.3733 42.9411 43.8C42.5144 44.22 41.9911 44.5533 41.3711 44.8C40.7511 45.04 40.0411 45.16 39.2411 45.16C38.7811 45.16 38.3278 45.1133 37.8811 45.02C37.4344 44.9333 37.0044 44.8067 36.5911 44.64C36.1844 44.4733 35.8011 44.2733 35.4411 44.04C35.0811 43.8067 34.7611 43.5467 34.4811 43.26L35.2711 41.97C35.3378 41.8767 35.4244 41.8 35.5311 41.74C35.6378 41.6733 35.7511 41.64 35.8711 41.64C36.0378 41.64 36.2178 41.71 36.4111 41.85C36.6044 41.9833 36.8344 42.1333 37.1011 42.3C37.3678 42.4667 37.6778 42.62 38.0311 42.76C38.3911 42.8933 38.8211 42.96 39.3211 42.96C40.0878 42.96 40.6811 42.78 41.1011 42.42C41.5211 42.0533 41.7311 41.53 41.7311 40.85C41.7311 40.47 41.6344 40.16 41.4411 39.92C41.2544 39.68 41.0044 39.48 40.6911 39.32C40.3778 39.1533 40.0211 39.0133 39.6211 38.9C39.2211 38.7867 38.8144 38.6633 38.4011 38.53C37.9878 38.3967 37.5811 38.2367 37.1811 38.05C36.7811 37.8633 36.4244 37.62 36.1111 37.32C35.7978 37.02 35.5444 36.6467 35.3511 36.2C35.1644 35.7467 35.0711 35.19 35.0711 34.53C35.0711 34.0033 35.1744 33.49 35.3811 32.99C35.5944 32.49 35.9011 32.0467 36.3011 31.66C36.7011 31.2733 37.1944 30.9633 37.7811 30.73C38.3678 30.4967 39.0411 30.38 39.8011 30.38C40.6544 30.38 41.4411 30.5133 42.1611 30.78C42.8811 31.0467 43.4944 31.42 44.0011 31.9L43.3311 33.17ZM52.5077 45H49.8077V30.54H52.5077V45ZM66.6452 33.17C66.5652 33.31 66.4785 33.4133 66.3852 33.48C66.2985 33.54 66.1885 33.57 66.0552 33.57C65.9152 33.57 65.7618 33.52 65.5952 33.42C65.4352 33.3133 65.2418 33.1967 65.0152 33.07C64.7885 32.9433 64.5218 32.83 64.2152 32.73C63.9152 32.6233 63.5585 32.57 63.1452 32.57C62.7718 32.57 62.4452 32.6167 62.1652 32.71C61.8852 32.7967 61.6485 32.92 61.4552 33.08C61.2685 33.24 61.1285 33.4333 61.0352 33.66C60.9418 33.88 60.8952 34.1233 60.8952 34.39C60.8952 34.73 60.9885 35.0133 61.1752 35.24C61.3685 35.4667 61.6218 35.66 61.9352 35.82C62.2485 35.98 62.6052 36.1233 63.0052 36.25C63.4052 36.3767 63.8152 36.5133 64.2352 36.66C64.6552 36.8 65.0652 36.9667 65.4652 37.16C65.8652 37.3467 66.2218 37.5867 66.5352 37.88C66.8485 38.1667 67.0985 38.52 67.2852 38.94C67.4785 39.36 67.5752 39.87 67.5752 40.47C67.5752 41.1233 67.4618 41.7367 67.2352 42.31C67.0152 42.8767 66.6885 43.3733 66.2552 43.8C65.8285 44.22 65.3052 44.5533 64.6852 44.8C64.0652 45.04 63.3552 45.16 62.5552 45.16C62.0952 45.16 61.6418 45.1133 61.1952 45.02C60.7485 44.9333 60.3185 44.8067 59.9052 44.64C59.4985 44.4733 59.1152 44.2733 58.7552 44.04C58.3952 43.8067 58.0752 43.5467 57.7952 43.26L58.5852 41.97C58.6518 41.8767 58.7385 41.8 58.8452 41.74C58.9518 41.6733 59.0652 41.64 59.1852 41.64C59.3518 41.64 59.5318 41.71 59.7252 41.85C59.9185 41.9833 60.1485 42.1333 60.4152 42.3C60.6818 42.4667 60.9918 42.62 61.3452 42.76C61.7052 42.8933 62.1352 42.96 62.6352 42.96C63.4018 42.96 63.9952 42.78 64.4152 42.42C64.8352 42.0533 65.0452 41.53 65.0452 40.85C65.0452 40.47 64.9485 40.16 64.7552 39.92C64.5685 39.68 64.3185 39.48 64.0052 39.32C63.6918 39.1533 63.3352 39.0133 62.9352 38.9C62.5352 38.7867 62.1285 38.6633 61.7152 38.53C61.3018 38.3967 60.8952 38.2367 60.4952 38.05C60.0952 37.8633 59.7385 37.62 59.4252 37.32C59.1118 37.02 58.8585 36.6467 58.6652 36.2C58.4785 35.7467 58.3852 35.19 58.3852 34.53C58.3852 34.0033 58.4885 33.49 58.6952 32.99C58.9085 32.49 59.2152 32.0467 59.6152 31.66C60.0152 31.2733 60.5085 30.9633 61.0952 30.73C61.6818 30.4967 62.3552 30.38 63.1152 30.38C63.9685 30.38 64.7552 30.5133 65.4752 30.78C66.1952 31.0467 66.8085 31.42 67.3152 31.9L66.6452 33.17ZM85.3117 30.54V45H82.6117V38.68H75.8217V45H73.1217V30.54H75.8217V36.76H82.6117V30.54H85.3117ZM101.832 32.75H97.4719V45H94.7819V32.75H90.4219V30.54H101.832V32.75ZM119.114 30.54V45H116.414V38.68H109.624V45H106.924V30.54H109.624V36.76H116.414V30.54H119.114ZM137.454 37.75V43.6C136.721 44.14 135.938 44.5367 135.104 44.79C134.278 45.0367 133.391 45.16 132.444 45.16C131.264 45.16 130.194 44.9767 129.234 44.61C128.281 44.2433 127.464 43.7333 126.784 43.08C126.111 42.4267 125.591 41.6467 125.224 40.74C124.858 39.8333 124.674 38.8433 124.674 37.77C124.674 36.6833 124.851 35.6867 125.204 34.78C125.558 33.8733 126.058 33.0933 126.704 32.44C127.358 31.7867 128.148 31.28 129.074 30.92C130.001 30.56 131.041 30.38 132.194 30.38C132.781 30.38 133.328 30.4267 133.834 30.52C134.348 30.6133 134.821 30.7433 135.254 30.91C135.694 31.07 136.094 31.2667 136.454 31.5C136.814 31.7333 137.144 31.99 137.444 32.27L136.674 33.49C136.554 33.6833 136.398 33.8033 136.204 33.85C136.011 33.89 135.801 33.84 135.574 33.7C135.354 33.5733 135.134 33.4467 134.914 33.32C134.694 33.1933 134.448 33.0833 134.174 32.99C133.908 32.8967 133.604 32.82 133.264 32.76C132.931 32.7 132.544 32.67 132.104 32.67C131.391 32.67 130.744 32.79 130.164 33.03C129.591 33.27 129.101 33.6133 128.694 34.06C128.288 34.5067 127.974 35.0433 127.754 35.67C127.534 36.2967 127.424 36.9967 127.424 37.77C127.424 38.5967 127.541 39.3367 127.774 39.99C128.014 40.6367 128.348 41.1867 128.774 41.64C129.208 42.0867 129.728 42.43 130.334 42.67C130.941 42.9033 131.618 43.02 132.364 43.02C132.898 43.02 133.374 42.9633 133.794 42.85C134.214 42.7367 134.624 42.5833 135.024 42.39V39.77H133.204C133.031 39.77 132.894 39.7233 132.794 39.63C132.701 39.53 132.654 39.41 132.654 39.27V37.75H137.454Z" fill="black"/>
<defs>
<filter id="filter0_f_101_5" x="25" y="0.764099" width="84.5069" height="81.2359" filterUnits="userSpaceOnUse" color-interpolation-filters="sRGB">
<feFlood flood-opacity="0" result="BackgroundImageFix"/>
<feBlend mode="normal" in="SourceGraphic" in2="BackgroundImageFix" result="shape"/>
<feGaussianBlur stdDeviation="7.5" result="effect1_foregroundBlur_101_5"/>
</filter>
</defs>
</svg>
