<svg width="41" height="32" viewBox="0 0 41 32" fill="none" xmlns="http://www.w3.org/2000/svg">
<path d="M25.9707 0C25.5741 0.711375 25.2208 1.44604 24.9125 2.2C21.8833 1.7201 18.7976 1.7201 15.7683 2.2C15.46 1.44604 15.1067 0.711375 14.7102 0C11.8567 0.488402 9.08273 1.36307 6.46445 2.6C1.78244 9.36857 -0.340884 17.5859 0.474828 25.78C3.52602 28.0777 6.95053 29.8302 10.5973 30.96C11.4277 29.8612 12.1688 28.6975 12.8135 27.48C11.6237 27.0406 10.4801 26.4845 9.39937 25.82C9.69578 25.6224 9.97616 25.4018 10.2379 25.16C13.3894 26.6806 16.8424 27.4703 20.3404 27.4703C23.8384 27.4703 27.2915 26.6806 30.4429 25.16C30.7224 25.4 31.0019 25.62 31.2815 25.82C30.1949 26.4793 29.0524 27.0415 27.8674 27.5C28.4853 28.7451 29.2066 29.9359 30.0236 31.06C33.6658 29.934 37.0844 28.1812 40.1261 25.88C40.9614 17.6844 38.8364 9.46037 34.1365 2.7C31.5477 1.43747 28.8011 0.529341 25.9707 0ZM13.7119 21.1C12.7128 21.0282 11.7803 20.5714 11.1102 19.8255C10.4402 19.0797 10.0846 18.1028 10.1181 17.1C10.0795 16.0958 10.4333 15.1162 11.1044 14.3692C11.7755 13.6223 12.711 13.1669 13.7119 13.1C14.7128 13.1669 15.6483 13.6223 16.3194 14.3692C16.9904 15.1162 17.3443 16.0958 17.3057 17.1C17.3443 18.1042 16.9904 19.0838 16.3194 19.8308C15.6483 20.5777 14.7128 21.0331 13.7119 21.1ZM26.9689 21.1C25.9698 21.0282 25.0374 20.5714 24.3673 19.8255C23.6972 19.0797 23.3416 18.1028 23.3752 17.1C23.3365 16.0958 23.6904 15.1162 24.3615 14.3692C25.0326 13.6223 25.968 13.1669 26.9689 13.1C27.9717 13.1619 28.9102 13.6158 29.5823 14.3639C30.2544 15.112 30.6065 16.0945 30.5627 17.1C30.6065 18.1055 30.2544 19.088 29.5823 19.8361C28.9102 20.5842 27.9717 21.0381 26.9689 21.1Z" fill="white"/>
</svg>
