<svg width="40" height="32" viewBox="0 0 40 32" fill="none" xmlns="http://www.w3.org/2000/svg">
<path d="M35.8905 7.956C35.917 8.306 35.917 8.654 35.917 9.002C35.917 19.652 27.6674 31.924 12.5911 31.924C7.94626 31.924 3.63118 30.602 0 28.306C0.659475 28.38 1.29452 28.406 1.98046 28.406C5.67065 28.4148 9.25635 27.2023 12.1596 24.964C10.4486 24.9336 8.7901 24.3789 7.41551 23.3775C6.04091 22.376 5.0189 20.9778 4.49216 19.378C4.99898 19.452 5.50784 19.502 6.04111 19.502C6.7759 19.502 7.51476 19.402 8.20069 19.228C6.3439 18.8596 4.67428 17.8707 3.47571 16.4294C2.27715 14.988 1.62364 13.1833 1.6263 11.322V11.222C2.71932 11.82 3.98738 12.194 5.33075 12.244C4.20535 11.5092 3.28256 10.512 2.6447 9.34158C2.00684 8.17112 1.67375 6.86371 1.67515 5.536C1.67515 4.04 2.0802 2.668 2.79056 1.472C4.85068 3.96204 7.42012 5.99912 10.3325 7.45132C13.2448 8.90351 16.4351 9.73843 19.6967 9.902C19.5705 9.302 19.4932 8.68 19.4932 8.056C19.4926 6.99792 19.7043 5.95012 20.1162 4.97248C20.528 3.99484 21.1319 3.10655 21.8933 2.35838C22.6547 1.6102 23.5588 1.01682 24.5537 0.612157C25.5487 0.207491 26.615 -0.000524758 27.6918 9.94126e-07C30.0529 9.94126e-07 32.184 0.972001 33.6821 2.544C35.5175 2.19524 37.2777 1.53684 38.8846 0.598001C38.2728 2.45963 36.9912 4.03821 35.2799 5.038C36.9078 4.85556 38.4987 4.43491 40 3.79C38.8787 5.3962 37.4894 6.80469 35.8905 7.956Z" fill="white"/>
</svg>
