<svg width="41" height="39" viewBox="0 0 41 39" fill="none" xmlns="http://www.w3.org/2000/svg">
<path fill-rule="evenodd" clip-rule="evenodd" d="M20.3877 0C9.34095 0 0.387672 8.93 0.387672 19.948C0.387672 28.76 6.11657 36.238 14.0652 38.878C15.0658 39.058 15.4268 38.444 15.4268 37.916C15.4268 37.442 15.4107 36.186 15.4047 34.524C9.84025 35.728 8.66519 31.848 8.66519 31.848C7.75884 29.544 6.44542 28.93 6.44542 28.93C4.6307 27.692 6.58378 27.72 6.58378 27.72C8.59301 27.86 9.64574 29.776 9.64574 29.776C11.4304 32.824 14.3299 31.944 15.4649 31.434C15.6473 30.144 16.1687 29.264 16.7382 28.766C12.2986 28.264 7.6305 26.552 7.6305 18.906C7.6305 16.732 8.41053 14.948 9.68384 13.556C9.48132 13.05 8.78952 11.02 9.88236 8.276C9.88236 8.276 11.5607 7.738 15.3807 10.318C17.0121 9.87534 18.695 9.64939 20.3857 9.646C22.0764 9.64874 23.7594 9.8747 25.3907 10.318C29.2126 7.736 30.889 8.276 30.889 8.276C31.9818 11.02 31.296 13.05 31.0875 13.556C32.3708 14.948 33.1408 16.73 33.1408 18.906C33.1408 26.572 28.4687 28.256 24.0131 28.75C24.7249 29.366 25.3666 30.582 25.3666 32.442C25.3666 35.11 25.3426 37.262 25.3426 37.916C25.3426 38.45 25.6995 39.07 26.7201 38.874C34.6648 36.23 40.3877 28.758 40.3877 19.948C40.3877 8.93 31.4344 0 20.3877 0Z" fill="white"/>
</svg>
