<svg width="41" height="31" viewBox="0 0 41 31" fill="none" xmlns="http://www.w3.org/2000/svg">
<path d="M33.831 0.997925L31.2719 2.99793L20.3758 11.0979L9.4797 2.91793L6.92062 0.917925C6.31775 0.419016 5.5818 0.108006 4.80396 0.0234257C4.02611 -0.0611543 3.24056 0.0844132 2.54461 0.442093C1.84866 0.799774 1.2729 1.35385 0.888666 2.03567C0.504432 2.7175 0.328604 3.49711 0.382968 4.27793V27.4579C0.382968 28.1793 0.669435 28.8712 1.17935 29.3813C1.68927 29.8914 2.38086 30.1779 3.10199 30.1779H9.4797V14.7379L20.3758 22.9179L31.2719 14.7379V30.1779H37.6496C38.3707 30.1779 39.0623 29.8914 39.5722 29.3813C40.0821 28.8712 40.3686 28.1793 40.3686 27.4579V4.27793C40.4061 3.50385 40.2181 2.73553 39.8273 2.06637C39.4365 1.39721 38.8598 0.856018 38.1673 0.508587C37.4748 0.161155 36.6964 0.0224443 35.9265 0.109315C35.1567 0.196187 34.4287 0.504899 33.831 0.997925Z" fill="white"/>
</svg>
