<svg width="42" height="42" viewBox="0 0 42 42" fill="none" xmlns="http://www.w3.org/2000/svg">
<path fill-rule="evenodd" clip-rule="evenodd" d="M20.998 0C9.40323 0 0 9.63992 0 21.5322C0 31.0438 6.01658 39.1147 14.3614 41.9633C15.4121 42.1602 15.7949 41.4952 15.7949 40.9243C15.7949 40.4128 15.7769 39.0593 15.7666 37.263C9.92535 38.5636 8.69289 34.3762 8.69289 34.3762C7.7376 31.8886 6.36079 31.2261 6.36079 31.2261C4.45409 29.8912 6.50517 29.9177 6.50517 29.9177C8.61297 30.0696 9.72164 32.1369 9.72164 32.1369C11.5948 35.4268 14.6373 34.4765 15.8336 33.9255C16.0244 32.5348 16.5672 31.5858 17.1666 31.0477C12.5037 30.5031 7.60096 28.6567 7.60096 20.406C7.60096 18.0545 8.41958 16.1339 9.76291 14.6284C9.54634 14.0838 8.82568 11.8949 9.96918 8.9301C9.96918 8.9301 11.7314 8.35114 15.7434 11.1361C17.418 10.659 19.2151 10.4211 21.0006 10.4118C22.7848 10.4211 24.5806 10.659 26.2579 11.1361C30.2672 8.35114 32.0268 8.9301 32.0268 8.9301C33.1731 11.8949 32.4524 14.0838 32.2371 14.6284C33.583 16.1339 34.3952 18.0545 34.3952 20.406C34.3952 28.6778 29.4847 30.4979 24.8075 31.0305C25.5604 31.6956 26.2321 33.0095 26.2321 35.0186C26.2321 37.896 26.2063 40.2185 26.2063 40.9243C26.2063 41.5007 26.5853 42.1709 27.6502 41.9604C35.9886 39.1069 42 31.0425 42 21.5322C42 9.63992 32.5968 0 20.998 0Z" fill="#597CE6"/>
</svg>
