<svg width="42" height="37" viewBox="0 0 42 37" fill="none" xmlns="http://www.w3.org/2000/svg">
<path d="M41.9363 1.30743C41.8991 0.745832 41.5292 0.261125 40.9975 0.0770532C40.4655 -0.107032 39.8752 0.0453013 39.4986 0.463732C38.531 1.53935 37.3079 2.26824 36.0667 2.60057C34.3402 0.988815 32.0207 5.36298e-05 29.4716 5.36298e-05C24.001 5.36298e-05 19.5698 4.44121 19.5698 9.91511V11.1465C11.1943 10.4993 6.71545 4.13693 5.50688 0.909155C5.31153 0.387405 4.82542 0.0311335 4.26909 0.00198558C3.71273 -0.0271959 3.19205 0.276273 2.94318 0.774728C0.0123707 6.64544 -0.439201 12.3395 1.69091 17.1881C3.55689 21.4355 7.30952 24.8189 12.6282 27.0605C10.211 28.7736 6.14259 30.7999 1.40011 30.7999C0.783357 30.7999 0.239258 31.2037 0.0603244 31.7939C-0.11861 32.3842 0.109775 33.0217 0.622696 33.3641C5.17019 36.4007 9.93619 36.4002 14.3691 36.3999H14.5048C28.1147 36.3999 39.1439 25.3506 39.1439 11.725V10.3858C40.1614 9.35152 40.9538 8.29282 41.4393 6.9241C41.9808 5.39687 42.09 3.62599 41.9363 1.30743Z" fill="#597CE6"/>
</svg>
