<svg width="49" height="49" viewBox="0 0 49 49" fill="none" xmlns="http://www.w3.org/2000/svg">
<g clip-path="url(#clip0_152_353)">
<path d="M6.06543 36.7593V12.7593H15.0654C16.6567 12.7593 18.1829 13.3914 19.3081 14.5166C20.4333 15.6419 21.0654 17.168 21.0654 18.7593C21.0654 20.3506 20.4333 21.8767 19.3081 23.0019C18.1829 24.1271 16.6567 24.7593 15.0654 24.7593C16.6567 24.7593 18.1829 25.3914 19.3081 26.5166C20.4333 27.6419 21.0654 29.168 21.0654 30.7593C21.0654 32.3506 20.4333 33.8767 19.3081 35.0019C18.1829 36.1271 16.6567 36.7593 15.0654 36.7593H6.06543Z" stroke="black" stroke-width="2" stroke-linecap="round" stroke-linejoin="round"/>
<path d="M6.06543 24.7593H15.0654" stroke="black" stroke-width="2" stroke-linecap="round" stroke-linejoin="round"/>
<path d="M28.0654 26.7593H42.0654C42.0654 24.9028 41.3279 23.1223 40.0152 21.8095C38.7024 20.4968 36.9219 19.7593 35.0654 19.7593C33.2089 19.7593 31.4284 20.4968 30.1157 21.8095C28.8029 23.1223 28.0654 24.9028 28.0654 26.7593V30.7593C28.2717 32.2566 28.9571 33.6469 30.0192 34.7224C31.0812 35.7979 32.4628 36.5007 33.9575 36.7258C35.4521 36.9509 36.9794 36.6862 38.3111 35.9712C39.6428 35.2562 40.7073 34.1294 41.3454 32.7593" stroke="black" stroke-width="2" stroke-linecap="round" stroke-linejoin="round"/>
<path d="M32.0654 12.7593H38.0654" stroke="black" stroke-width="2" stroke-linecap="round" stroke-linejoin="round"/>
</g>
<defs>
<clipPath id="clip0_152_353">
<rect width="48" height="48" fill="white" transform="translate(0.0654297 0.759277)"/>
</clipPath>
</defs>
</svg>
