<svg width="49" height="49" viewBox="0 0 49 49" fill="none" xmlns="http://www.w3.org/2000/svg">
<path d="M42.4316 24.8249C42.4316 34.7661 34.3728 42.8249 24.4316 42.8249M42.4316 24.8249C42.4316 14.8838 34.3728 6.82489 24.4316 6.82489M42.4316 24.8249H6.43164M24.4316 42.8249C14.4905 42.8249 6.43164 34.7661 6.43164 24.8249M24.4316 42.8249C27.7454 42.8249 30.4316 34.7661 30.4316 24.8249C30.4316 14.8838 27.7454 6.82489 24.4316 6.82489M24.4316 42.8249C21.1178 42.8249 18.4316 34.7661 18.4316 24.8249C18.4316 14.8838 21.1178 6.82489 24.4316 6.82489M6.43164 24.8249C6.43164 14.8838 14.4905 6.82489 24.4316 6.82489" stroke="black" stroke-width="2" stroke-linecap="round" stroke-linejoin="round"/>
</svg>
